<svg width="243" height="342" viewBox="0 0 243 342" fill="none" xmlns="http://www.w3.org/2000/svg">
<path d="M167.947 99.2657L162.896 89.0138L162.95 88.97C162.243 86.3467 163.098 83.2643 165.136 81.6182C165.268 81.5118 178.264 71.0065 188.15 61.9518C188.277 61.8362 188.309 61.681 188.32 61.5942C188.333 61.4671 188.303 61.4271 188.289 61.3994C185.802 58.0012 183.983 53.7799 183.102 51.5296C182.952 51.3141 182.803 51.0986 182.68 50.8487C178.591 42.5492 180.922 31.2259 187.876 25.6117L206.985 10.1837C213.939 4.5695 222.926 6.75492 227.014 15.0545C238.301 37.9638 226.579 57.4767 218.805 64.5935C218.724 64.6716 218.631 64.7467 218.546 64.8156L174.413 100.447C172.203 102.231 169.427 101.653 167.947 99.2657ZM213.386 54.7814C214.671 53.5629 225.183 42.9421 220.627 27.3378L193.602 49.1561C194.222 50.4144 194.971 51.7367 195.794 52.8571C197.655 55.4026 198.504 58.9074 198.113 62.4691C198.115 62.4938 198.104 62.5156 198.105 62.5404C197.878 64.5863 199.556 65.9472 200.975 64.8019L213.386 54.7814Z" fill="black"/>
<path d="M168.108 93.4325C133.908 108.668 82.202 140.52 78.5671 191.448C77.399 207.794 81.5794 224.219 89.9461 236.165C93.4176 241.122 98.2292 245.566 103.682 244.669C109.202 243.756 113.579 237.441 115.359 230.805C117.956 221.143 116.124 210.452 111.522 202.606C104.868 191.256 93.7801 186.059 82.68 184.093C66.832 181.265 47.4854 182.025 35.0094 198.072C25.7805 209.933 22.5234 228.483 29.0291 242.216C31.8612 248.207 36.3915 252.762 41.6051 255.316C45.304 257.128 55.4077 260.701 58.2059 254.613C59.0733 252.723 58.0848 249.331 57.6874 247.557C55.7284 238.896 51.7435 230.719 47.2773 223.875C42.5062 216.566 36.0648 209.364 28.087 208.149C18.2676 206.649 10.1211 215.67 4.58033 225.252C4.49915 225.395 4.41797 225.538 4.33998 225.666C-24.9921 277.089 -31.8489 307.533 -31.8489 307.533" stroke="black" stroke-width="10" stroke-miterlimit="10"/>
</svg>
