<svg width="495" height="560" viewBox="0 0 495 560" fill="none" xmlns="http://www.w3.org/2000/svg">
<g opacity="0.15">
<path d="M98.8863 558.864C82.9969 547.223 60.2434 527.598 41.1055 497.651C17.3054 460.401 11.2704 426.211 5.50725 393.544C-2.53939 347.917 -0.0112251 313.074 2.19073 285.453C4.99074 250.256 6.60822 232.223 17.7131 210.993C22.9462 200.984 38.4957 172.22 72.259 155.778C97.5271 143.47 121.803 143.511 135.98 143.524C150.782 143.552 163.056 145.469 171.659 147.292C147.397 284.473 123.149 421.669 98.8863 558.864Z" fill="white"/>
<path d="M138.63 334.086C133.723 341.729 131.086 348.325 129.618 352.704C125.31 365.542 127.281 370.452 122.347 384.365C120.987 388.186 118.785 394.293 114.341 401.446C110.508 407.607 107.721 410.191 99.3349 421.887C92.7562 431.067 90.962 434.385 92.2261 436.398C93.2863 438.098 95.9232 437.935 100.925 438.193C105.56 438.438 111.989 439.036 119.805 440.614C126.071 405.091 132.351 369.595 138.63 334.086Z" fill="black"/>
<path d="M62.1464 484.118C65.993 479.059 75.5212 468.016 91.9815 462.114C101.985 458.523 110.902 458.143 116.665 458.387C115.306 466.071 113.947 473.755 112.587 481.439C106.335 479.97 97.364 478.569 86.5989 479.209C76.3639 479.821 68.0182 482.065 62.1464 484.118Z" fill="black"/>
<path d="M34.8394 332.929C35.3152 329.339 48.5269 328.659 74.9639 327.313C85.0358 326.796 93.9251 326.687 103.684 331.012C106.607 332.304 116.108 336.52 115.782 341.416C115.401 347.141 101.809 350.283 100.014 350.704C94.9446 351.874 85.0358 353.261 62.5949 346.053C49.4919 341.837 34.3093 336.969 34.8394 332.929Z" fill="black"/>
<path d="M34.3093 297.76C34.3637 296.155 52.6725 295.19 89.2222 294.863C100.748 304.41 112.275 313.957 123.801 323.491C111.378 317.085 98.9543 310.68 86.5173 304.261C51.6531 301.486 34.255 299.324 34.3093 297.76Z" fill="black"/>
<path d="M99.9465 559.069C118.84 553.235 146.881 542.096 174.962 520.01C209.895 492.552 227.007 462.238 243.372 433.257C266.221 392.784 275.477 359.07 282.641 332.278C291.761 298.142 296.26 280.585 292.876 256.935C291.285 245.783 286.215 213.578 259.833 187.099C240.083 167.271 217.153 159.437 203.764 154.854C189.778 150.067 177.545 147.905 168.805 146.844C145.848 284.257 122.89 421.67 99.9465 559.069Z" fill="black"/>
<path d="M137.556 333.938C139.636 342.737 139.921 349.822 139.853 354.446C139.636 367.964 136.129 371.963 136.143 386.705C136.143 390.758 136.184 397.231 137.991 405.418C139.554 412.49 141.321 415.822 145.331 429.585C148.485 440.397 149.069 444.096 147.193 445.592C145.617 446.844 143.184 445.837 138.386 444.464C133.927 443.185 127.648 441.676 119.75 440.615C125.663 405.065 131.603 369.501 137.556 333.938Z" fill="white"/>
<path d="M159.617 500.426C157.673 494.401 152.372 480.883 138.807 469.962C130.556 463.326 122.265 460.075 116.747 458.43C115.455 466.127 114.178 473.825 112.886 481.522C119.275 482.161 128.219 483.753 138.168 487.86C147.628 491.749 154.764 496.577 159.617 500.426Z" fill="white"/>
<path d="M235.937 366.524C236.685 362.988 224.438 358.051 199.918 348.205C190.58 344.451 182.221 341.459 171.564 342.384C168.384 342.656 157.999 343.554 156.667 348.287C155.118 353.808 166.902 361.193 168.452 362.172C172.842 364.919 181.745 369.448 205.341 369.924C219.124 370.196 235.095 370.522 235.937 366.524Z" fill="white"/>
<path d="M248.198 333.489C248.673 331.966 231.724 325.111 197.322 312.926C183.254 318.203 169.172 323.466 155.104 328.742C168.982 326.73 182.859 324.703 196.724 322.69C230.568 331.394 247.722 334.985 248.198 333.489Z" fill="white"/>
<path d="M368.571 417.888C345.301 407.715 306.468 386.921 273.425 346.651C249.258 317.208 238.697 290.144 227.768 262.169C215.345 230.359 199.496 188.499 202.854 134.439C204.43 109.13 205.926 84.9494 222.726 60.3064C243.101 30.4275 273.874 17.5892 286.487 12.3261C305.87 4.23418 323.309 1.29661 335.392 0.140625C346.456 139.376 357.507 278.625 368.571 417.888Z" fill="white"/>
<path d="M237.827 182.232C259.438 177.132 272.487 172.943 280.928 169.502C283.157 168.591 288.227 166.442 294.887 166.782C300.65 167.081 305.054 169.094 310.518 172.073C317.07 175.649 325.918 181.035 335.909 188.896C323.118 183.292 312.38 179.865 304.646 177.73C298.584 176.057 294.316 175.173 288.988 175.296C280.67 175.486 275.301 178.029 270.367 179.688C263.299 182.068 252.71 184.149 237.827 182.232Z" fill="black"/>
<path d="M250.984 202.358C261.749 200.25 270.91 199.474 277.734 199.189C284.978 198.89 291.856 198.631 300.963 199.978C308.507 201.106 314.555 202.874 318.348 204.153C325.783 206.642 328.188 206.723 329.915 208.831C332.932 212.53 333.856 218.8 330.948 222.567C328.827 225.287 325.443 225.763 319.87 226.457C312.014 227.436 305.87 226.484 304.769 226.307C287.86 223.573 287.208 220.133 270.598 216.828C266.697 216.053 261.831 214.353 252.071 210.939C248.945 209.851 245.833 208.695 245.724 206.873C245.574 204.602 250.196 202.684 250.984 202.358Z" fill="black"/>
<path d="M352.247 181.523C350.086 181.537 348.59 201.094 347.816 211.062C346.266 231.299 347.367 248.557 348.957 261.545C346.375 264.891 342.637 270.045 338.763 276.654C332.484 287.344 327.482 295.885 331.084 299.557C333.313 301.828 337.023 300.373 349.066 301.311C355.387 301.801 360.524 302.698 363.936 303.378C358.187 203.664 354.557 181.51 352.247 181.523Z" fill="black"/>
<path d="M292.876 316.528C294.547 313.631 308.357 321.152 334.618 324.933C345.804 326.537 355.142 326.877 361.354 326.904C362.156 337.023 362.957 347.127 363.759 357.246C361.055 357.926 357.058 358.619 352.301 358.266C341.251 357.463 333.72 351.602 324.559 344.272C292.645 318.785 292.468 317.235 292.876 316.528Z" fill="black"/>
<path d="M369.359 418.133C390.794 404.615 425.971 378.272 452.422 333.556C471.764 300.848 478.043 272.533 484.527 243.253C491.894 209.96 501.11 166.223 489.461 113.293C484.01 88.5 478.791 64.8363 458.375 42.9677C433.637 16.4752 401.22 8.35606 387.94 5.02409C367.538 -0.0894572 349.841 -0.402254 337.717 0.250539C348.264 139.554 358.812 278.844 369.359 418.133Z" fill="black"/>
<path d="M462.249 165.733C440.107 163.911 426.556 161.707 417.68 159.559C415.329 158.987 410 157.614 403.449 158.947C397.795 160.089 393.758 162.741 388.81 166.508C382.884 171.023 374.959 177.66 366.301 186.922C378.086 179.482 388.171 174.491 395.47 171.241C401.206 168.684 405.284 167.175 410.571 166.508C418.835 165.461 424.531 167.175 429.668 168.086C437.049 169.364 447.841 169.84 462.249 165.733Z" fill="white"/>
<path d="M452.34 187.602C441.385 187.126 432.21 187.711 425.414 188.445C418.21 189.22 411.373 189.996 402.579 192.688C395.293 194.919 389.585 197.584 386.037 199.393C379.064 202.97 376.699 203.391 375.326 205.744C372.907 209.851 372.961 216.189 376.427 219.466C378.942 221.846 382.367 221.806 387.967 221.67C395.878 221.466 401.804 219.616 402.864 219.276C419.162 214.054 419.27 210.559 435.187 204.819C438.911 203.473 443.478 201.066 452.599 196.238C455.521 194.688 458.416 193.096 458.253 191.274C458.036 189.016 453.183 187.792 452.34 187.602Z" fill="white"/>
<path d="M354.489 186.486C356.284 186.282 360.089 204.791 362.033 214.243C365.975 233.406 367.307 250.011 367.687 262.577C370.27 265.501 374.049 270.044 378.14 275.96C384.759 285.52 390.047 293.177 387.519 297.053C385.955 299.447 382.68 298.44 372.798 300.575C367.606 301.69 363.447 303.064 360.715 304.07C352.451 208.246 352.573 186.717 354.489 186.486Z" fill="white"/>
<path d="M428.554 306.684C426.447 304.059 413.956 313.565 388.592 321.208C377.787 324.459 368.612 326.186 362.468 327.138C363.229 337.256 364.004 347.375 364.765 357.493C367.538 357.751 371.602 357.847 376.251 356.799C387.043 354.351 393.594 347.443 401.519 338.848C429.125 308.873 429.057 307.323 428.554 306.684Z" fill="white"/>
</g>
</svg>
