<svg width="439" height="127" viewBox="0 0 439 127" fill="none" xmlns="http://www.w3.org/2000/svg">
<path d="M429.009 97.0352C431.542 98.2856 433.676 100.219 435.169 102.617C436.662 105.014 437.456 107.782 437.461 110.606C437.461 117.996 433.163 125.458 424.59 125.458H411.599C403.098 125.458 398.728 117.996 398.728 110.437C398.66 107.613 399.454 104.835 401.002 102.471C402.55 100.108 404.78 98.2709 407.397 97.2042L410.536 104.956C405.851 107.515 406.914 115.919 411.599 115.919H424.59C429.106 115.919 430.386 107.419 425.17 105.342L429.009 97.0352Z" stroke="black" stroke-miterlimit="10"/>
<path d="M399.259 93.5804V83.9211H427.512V68.6836H436.882V93.5804H399.259Z" stroke="black" stroke-miterlimit="10"/>
<path d="M424.325 56.0082C430.386 56.0082 430.386 45.2623 424.325 45.214H399.259V35.5547H424.325C441.977 35.5547 441.977 65.6675 424.325 65.6192H399.259V55.9599L424.325 56.0082Z" stroke="black" stroke-miterlimit="10"/>
<path d="M416.863 6.47902C417.773 4.58288 419.277 3.03566 421.147 2.07244C423.017 1.10921 425.15 0.782618 427.222 1.14228C433.284 2.1082 436.882 6.21339 436.882 14.5687V29.9511H399.211V14.8343C399.211 7.58984 403.509 2.37383 410.705 2.59117C411.976 2.66817 413.207 3.06492 414.283 3.74459C415.36 4.42426 416.247 5.36483 416.863 6.47902V6.47902ZM413.989 14.8343C414.029 14.3712 413.971 13.905 413.821 13.4651C413.671 13.0253 413.431 12.6215 413.117 12.2792C412.802 11.9369 412.42 11.6636 411.995 11.4767C411.569 11.2898 411.11 11.1933 410.645 11.1933C410.18 11.1933 409.72 11.2898 409.295 11.4767C408.869 11.6636 408.487 11.9369 408.173 12.2792C407.858 12.6215 407.618 13.0253 407.468 13.4651C407.318 13.905 407.261 14.3712 407.3 14.8343V20.3642H413.989V14.8343ZM428.478 14.8343C428.52 14.3028 428.452 13.7684 428.278 13.2647C428.103 12.7609 427.826 12.2987 427.464 11.9072C427.103 11.5156 426.664 11.2031 426.175 10.9894C425.687 10.7757 425.16 10.6654 424.627 10.6654C424.093 10.6654 423.566 10.7757 423.078 10.9894C422.589 11.2031 422.15 11.5156 421.789 11.9072C421.427 12.2987 421.15 12.7609 420.976 13.2647C420.801 13.7684 420.733 14.3028 420.775 14.8343V20.3642H428.478V14.8343Z" stroke="black" stroke-miterlimit="10"/>
<path d="M94.4123 109.376H92.4079V123.382H81.0825V79.3359H98.8072C107.959 79.3359 115.035 83.5136 115.276 93.8248C115.276 101.987 111.968 106.575 106.583 108.314L118.657 123.431H104.699L94.4123 109.376ZM99.0004 99.717C100.339 99.717 101.623 99.1853 102.569 98.2388C103.516 97.2923 104.047 96.0086 104.047 94.67C104.047 93.3315 103.516 92.0478 102.569 91.1013C101.623 90.1548 100.339 89.6231 99.0004 89.6231H92.4079V99.717H99.0004Z" fill="black"/>
<path d="M199.964 99.5469C202.197 100.582 204.023 102.33 205.155 104.515C206.287 106.7 206.661 109.2 206.218 111.621C205.059 118.696 200.23 122.971 190.57 122.971H172.459V78.9727H190.256C198.708 78.9727 204.914 83.9955 204.745 92.399C204.621 93.8984 204.116 95.3413 203.28 96.5918C202.443 97.8423 201.302 98.8593 199.964 99.5469ZM190.136 96.1903C191.173 96.1903 192.168 95.7782 192.902 95.0445C193.636 94.3109 194.048 93.3158 194.048 92.2783C194.048 91.2408 193.636 90.2457 192.902 89.5121C192.168 88.7785 191.173 88.3663 190.136 88.3663H183.616V96.1903H190.136ZM190.136 113.239C190.768 113.304 191.407 113.236 192.011 113.039C192.615 112.842 193.172 112.52 193.644 112.095C194.116 111.669 194.493 111.149 194.751 110.568C195.01 109.987 195.143 109.359 195.143 108.723C195.143 108.088 195.01 107.459 194.751 106.878C194.493 106.298 194.116 105.777 193.644 105.352C193.172 104.926 192.615 104.604 192.011 104.407C191.407 104.21 190.768 104.142 190.136 104.208H183.616V113.311L190.136 113.239Z" fill="black"/>
<path d="M210.348 93.4605C210.348 83.3183 219.5 78.3438 228.7 78.3438C237.901 78.3438 247.125 83.3907 247.125 93.4605V108.481C247.125 118.55 237.973 123.597 228.773 123.597C219.572 123.597 210.348 118.575 210.348 108.481V93.4605ZM221.577 108.481C221.577 111.717 225.199 113.31 228.821 113.31C232.443 113.31 236.065 111.692 236.065 108.481V93.4605C236.065 90.0315 232.371 88.486 228.821 88.486C225.271 88.486 221.818 90.2246 221.818 93.4605L221.577 108.481Z" fill="black"/>
<path d="M273.157 89.4753V122.969H261.832V89.4753H250.047V78.8984H284.941V89.4753H273.157Z" fill="black"/>
<path d="M351.132 113.577C349.647 116.546 347.365 119.042 344.541 120.787C341.718 122.531 338.464 123.455 335.145 123.454C326.452 123.454 317.686 118.431 317.686 108.41V93.2445C317.686 83.2955 326.452 78.2002 335.339 78.2002C338.655 78.1192 341.919 79.0418 344.703 80.8472C347.487 82.6526 349.66 85.2567 350.938 88.3183L341.786 91.9888C338.792 86.5314 328.891 87.7629 328.891 93.2445V108.482C328.891 113.77 338.913 115.268 341.352 109.158L351.132 113.577Z" fill="black"/>
<path d="M360.139 108.916C364.582 114.253 374.338 114.518 374.628 109.785C374.773 107.37 370.692 105.873 367.069 105.366C359.825 104.255 353.401 99.7637 353.401 91.3843C353.401 83.0048 361.298 78.1994 369.436 78.1994C372.341 78.0786 375.232 78.6532 377.87 79.8755C380.508 81.0978 382.815 82.9323 384.601 85.2265L377.356 90.8047C372.72 85.9751 364.775 85.9751 364.582 91.1911C364.727 93.292 366.997 94.5477 370.474 95.2963C378.371 96.721 386.267 99.4498 385.76 110.268C385.374 118.792 376.366 123.453 368.228 123.453C365.273 123.372 362.375 122.614 359.758 121.236C357.141 119.859 354.876 117.899 353.136 115.508L360.139 108.916Z" fill="black"/>
<path d="M173.836 76.5084C173.714 76.8895 173.516 77.2421 173.255 77.5451C172.993 77.848 172.674 78.095 172.314 78.2712C171.898 78.444 171.445 78.508 170.997 78.4574C170.549 78.4067 170.122 78.2429 169.755 77.9814L163.621 85.0327L162.22 83.463L167.654 78.8024L168.112 78.4161C168.789 77.909 169.272 77.4984 168.837 76.4359C168.679 75.831 168.762 75.1886 169.068 74.6437C169.375 74.0987 169.88 73.6938 170.479 73.514C171.08 73.3255 171.729 73.361 172.307 73.614C172.884 73.8671 173.35 74.3205 173.618 74.8904C173.676 75.0499 173.749 75.2035 173.836 75.3492V76.5084Z" fill="black"/>
<path d="M143.819 108.168C137.807 108.168 131.745 108.168 125.781 108.168C124.163 108.081 122.551 107.912 120.951 107.661C120.614 107.63 120.302 107.469 120.081 107.212C119.86 106.955 119.748 106.622 119.768 106.284C119.768 104.256 119.768 102.203 119.768 100.175C119.748 99.8199 119.869 99.4715 120.103 99.2049C120.338 98.9382 120.669 98.7748 121.024 98.75L124.742 98.3153C124.894 98.324 125.044 98.2773 125.163 98.1841C125.283 98.0909 125.365 97.9573 125.394 97.8082C125.877 96.5525 126.409 95.3934 126.964 94.0653C127.058 93.9491 127.109 93.8042 127.109 93.6547C127.109 93.5053 127.058 93.3603 126.964 93.2442L124.742 90.4672C124.593 90.3232 124.477 90.1483 124.402 89.9548C124.328 89.7613 124.296 89.5538 124.31 89.3468C124.324 89.1399 124.382 88.9384 124.482 88.7565C124.582 88.5746 124.72 88.4167 124.887 88.2938L128.848 84.3335C128.973 84.1776 129.129 84.0493 129.307 83.9567C129.484 83.8641 129.679 83.8093 129.878 83.7957C130.078 83.7821 130.278 83.81 130.467 83.8776C130.655 83.9452 130.827 84.0511 130.973 84.1887C131.914 84.9131 132.856 85.6375 133.774 86.3861C133.897 86.4841 134.051 86.5374 134.208 86.5374C134.366 86.5374 134.519 86.4841 134.643 86.3861C135.899 85.8307 137.058 85.3236 138.434 84.8407C138.724 84.7199 138.869 84.5992 138.893 84.2853C138.893 83.1744 139.159 82.0636 139.28 80.9287C139.4 79.7937 139.859 79.2383 141.163 79.2383H146.621C147.731 79.2383 148.19 79.6247 148.335 80.7113C148.48 81.798 148.649 83.1261 148.746 84.1887C148.746 84.5992 148.963 84.7441 149.349 84.889C150.605 85.3478 151.764 85.8549 153.02 86.3861C153.136 86.4802 153.281 86.5316 153.43 86.5316C153.58 86.5316 153.725 86.4802 153.841 86.3861L156.618 84.237C156.754 84.0703 156.925 83.936 157.119 83.8438C157.314 83.7516 157.526 83.7037 157.741 83.7037C157.956 83.7037 158.168 83.7516 158.362 83.8438C158.557 83.936 158.728 84.0703 158.864 84.237L162.921 88.2697C163.088 88.3926 163.226 88.5505 163.326 88.7324C163.425 88.9143 163.484 89.1157 163.498 89.3227C163.512 89.5297 163.48 89.7372 163.406 89.9307C163.331 90.1242 163.215 90.299 163.066 90.443L160.82 93.2684C160.737 93.3712 160.693 93.4989 160.693 93.6306C160.693 93.7623 160.737 93.89 160.82 93.9928C161.375 95.2485 161.931 96.4076 162.414 97.7841C162.445 97.9229 162.521 98.0477 162.63 98.1392C162.739 98.2308 162.875 98.2842 163.017 98.2912L166.736 98.7259C166.922 98.735 167.105 98.7813 167.273 98.8619C167.441 98.9425 167.591 99.0559 167.715 99.1953C167.838 99.3347 167.933 99.4975 167.993 99.6739C168.053 99.8504 168.077 100.037 168.064 100.223V106.067C168.077 106.253 168.053 106.44 167.993 106.616C167.933 106.792 167.838 106.955 167.715 107.095C167.591 107.234 167.441 107.347 167.273 107.428C167.105 107.509 166.922 107.555 166.736 107.564C164.804 107.757 162.848 108.023 160.916 108.047C155.145 108.216 149.518 108.168 143.819 108.168ZM153.479 105.125C154.493 105.125 154.493 105.125 154.614 104.28C154.648 104.128 154.719 103.986 154.822 103.868C154.924 103.75 155.054 103.66 155.2 103.605C155.346 103.55 155.504 103.532 155.659 103.553C155.813 103.574 155.96 103.633 156.087 103.725C156.546 104.135 156.908 104.159 157.294 103.725C157.38 103.602 157.486 103.496 157.608 103.411C158.067 103.073 158.115 102.759 157.608 102.3C157.495 102.171 157.42 102.013 157.392 101.845C157.364 101.676 157.384 101.502 157.449 101.344C157.514 101.186 157.623 101.049 157.762 100.949C157.901 100.849 158.065 100.79 158.236 100.778C158.84 100.778 159.081 100.489 158.984 99.885C158.96 99.733 158.96 99.5781 158.984 99.4262C158.984 98.8225 158.815 98.5568 158.212 98.6051C157.608 98.6534 157.632 98.1463 157.439 97.8082C157.246 97.4702 157.439 97.3253 157.439 97.1079C157.946 96.4801 157.946 96.4559 157.439 95.8764C157.331 95.7923 157.233 95.6949 157.149 95.5866C156.787 95.1036 156.425 95.1278 155.99 95.5866C155.86 95.6777 155.71 95.7354 155.552 95.7546C155.395 95.7738 155.235 95.7539 155.087 95.6966C154.939 95.6393 154.807 95.5464 154.704 95.4261C154.6 95.3059 154.528 95.1619 154.493 95.007C154.493 94.2101 154.493 94.2102 153.551 94.2102H153.141C152.537 94.2102 152.247 94.3792 152.295 94.9587C152.344 95.5383 151.885 95.5142 151.571 95.7073C151.521 95.76 151.461 95.8019 151.395 95.8305C151.329 95.8592 151.257 95.874 151.185 95.874C151.112 95.874 151.041 95.8592 150.974 95.8305C150.908 95.8019 150.848 95.76 150.798 95.7073C150.364 95.2485 149.977 95.2485 149.591 95.7073C149.52 95.8269 149.421 95.9266 149.301 95.9971C148.818 96.3593 148.721 96.7699 149.301 97.1804C149.881 97.5909 149.301 97.929 149.301 98.267C149.244 98.3768 149.162 98.4714 149.061 98.5428C148.96 98.6143 148.844 98.6605 148.721 98.6776C148.069 98.6776 147.852 98.9673 147.949 99.5711C147.973 99.723 147.973 99.8779 147.949 100.03C147.949 100.609 148.118 100.827 148.673 100.875C148.847 100.892 149.012 100.958 149.15 101.063C149.289 101.169 149.396 101.311 149.458 101.474C149.521 101.637 149.537 101.814 149.505 101.985C149.473 102.156 149.394 102.316 149.277 102.445C149.277 102.638 148.963 102.952 149.035 103.048C149.38 103.482 149.778 103.871 150.219 104.207C150.219 104.207 150.75 103.99 150.991 103.821C151.121 103.766 151.261 103.737 151.402 103.736C151.543 103.736 151.683 103.763 151.813 103.817C151.944 103.871 152.062 103.951 152.161 104.051C152.261 104.151 152.339 104.27 152.392 104.401C152.513 105.125 152.513 105.125 153.455 105.125H153.479ZM136.43 103.435C136.594 103.531 136.748 103.645 136.889 103.773C137.251 104.135 137.565 104.159 137.903 103.773L138.145 103.531C138.821 102.879 138.821 102.879 138.145 102.082C138.049 101.829 138.056 101.549 138.164 101.301C138.273 101.052 138.473 100.856 138.724 100.754C139.642 100.585 139.642 100.585 139.642 99.6676V99.2088C139.642 98.7742 139.497 98.5327 139.062 98.5568C138.628 98.581 138.314 98.2187 138.096 97.7841C137.879 97.3494 138.096 97.1562 138.338 96.9147C138.579 96.6733 138.628 96.2628 138.338 95.9488L138 95.6349C137.396 95.0312 137.348 94.9829 136.72 95.6349C136.092 96.2869 135.971 95.6349 135.633 95.6349C135.535 95.575 135.452 95.4941 135.389 95.398C135.327 95.3019 135.286 95.1931 135.271 95.0795C135.271 94.3067 135.271 94.3067 134.377 94.3067H133.967C133.339 94.186 133.098 94.4758 133.049 95.0795C133.022 95.2359 132.955 95.3829 132.855 95.5066C132.755 95.6303 132.626 95.7268 132.479 95.787C132.332 95.8473 132.172 95.8693 132.014 95.8512C131.856 95.833 131.706 95.7752 131.576 95.6832C131.117 95.2727 130.731 95.2485 130.369 95.6832C130.291 95.7969 130.193 95.8952 130.079 95.973C129.572 96.3593 129.524 96.7457 130.079 97.1562C130.635 97.5668 130.079 97.9048 130.079 98.2429C130.015 98.3464 129.93 98.436 129.831 98.5065C129.731 98.577 129.619 98.6269 129.5 98.6534C128.727 98.6534 128.703 98.6534 128.703 99.5469C128.714 99.6835 128.714 99.8208 128.703 99.9574C128.703 100.513 128.703 100.803 129.451 100.851C129.63 100.859 129.802 100.919 129.946 101.023C130.091 101.127 130.203 101.272 130.267 101.438C130.331 101.605 130.345 101.786 130.307 101.961C130.27 102.135 130.182 102.295 130.055 102.421C129.693 102.831 129.741 103.073 130.055 103.435C130.973 104.304 130.973 104.328 132.011 103.604C132.213 103.605 132.415 103.621 132.615 103.652C132.78 103.758 132.9 103.922 132.953 104.111C133.122 105.077 132.953 105.004 134.039 105.029H134.402C134.957 105.029 135.199 104.835 135.174 104.304C135.157 104.222 135.157 104.138 135.175 104.057C135.193 103.975 135.229 103.898 135.279 103.832C135.33 103.765 135.394 103.711 135.467 103.671C135.541 103.632 135.622 103.609 135.706 103.604C135.943 103.568 136.178 103.511 136.406 103.435H136.43Z" fill="black"/>
<path d="M126.795 109.977H132.615C132.731 110.002 132.841 110.052 132.936 110.123C133.032 110.193 133.112 110.284 133.17 110.387C134.372 112.126 135.978 113.546 137.849 114.528C139.721 115.509 141.803 116.022 143.916 116.022C146.029 116.022 148.111 115.509 149.983 114.528C151.854 113.546 153.46 112.126 154.662 110.387C154.766 110.216 154.916 110.077 155.096 109.987C155.275 109.897 155.477 109.86 155.676 109.88C157.391 109.88 159.105 109.88 160.965 109.88C160.651 110.62 160.288 111.338 159.878 112.029C159.795 112.131 159.733 112.247 159.695 112.373C159.657 112.498 159.645 112.63 159.658 112.76C159.671 112.89 159.711 113.017 159.773 113.132C159.836 113.247 159.921 113.348 160.023 113.43C160.844 114.372 161.592 115.386 162.438 116.376C162.513 116.435 162.574 116.51 162.616 116.596C162.658 116.681 162.679 116.776 162.679 116.871C162.679 116.967 162.658 117.061 162.616 117.147C162.574 117.232 162.513 117.307 162.438 117.366L158.212 121.447C158.156 121.522 158.083 121.583 157.999 121.625C157.915 121.667 157.823 121.689 157.729 121.689C157.635 121.689 157.543 121.667 157.459 121.625C157.375 121.583 157.302 121.522 157.246 121.447L153.889 118.815C153.795 118.725 153.669 118.675 153.539 118.675C153.409 118.675 153.283 118.725 153.189 118.815C151.687 119.707 150.059 120.366 148.359 120.771C148.229 120.788 148.109 120.851 148.02 120.948C147.932 121.045 147.881 121.171 147.876 121.302C147.731 122.703 147.538 124.079 147.393 125.456C147.393 126.011 147.104 126.18 146.548 126.18C144.737 126.18 142.926 126.18 141.115 126.18C140.511 126.18 140.294 125.963 140.221 125.383C140.076 124.031 139.883 122.655 139.738 121.302C139.745 121.178 139.704 121.056 139.623 120.962C139.542 120.867 139.428 120.807 139.304 120.795C137.61 120.349 135.986 119.675 134.474 118.791C134.377 118.74 134.27 118.714 134.16 118.714C134.051 118.714 133.943 118.74 133.846 118.791L130.61 121.206C130.007 121.689 129.958 121.689 129.403 121.206L125.636 117.463C125.08 116.883 125.056 116.859 125.636 116.207C126.433 115.169 127.254 114.13 128.051 113.116C128.149 113.002 128.203 112.856 128.203 112.706C128.203 112.555 128.149 112.409 128.051 112.295C127.64 111.667 127.254 110.894 126.795 109.977Z" fill="black"/>
<path d="M125.563 83.5377L124.042 85.0107L117.933 78.0078C117.616 78.2173 117.26 78.3597 116.886 78.4262C116.512 78.4926 116.129 78.4817 115.759 78.3941C115.424 78.311 115.11 78.1603 114.835 77.9513C114.56 77.7423 114.331 77.4794 114.161 77.1787C113.992 76.878 113.885 76.5458 113.849 76.2026C113.812 75.8593 113.846 75.5122 113.948 75.1824C114.056 74.8517 114.23 74.5463 114.459 74.2844C114.689 74.0226 114.968 73.8097 115.282 73.6586C115.595 73.5075 115.936 73.4213 116.284 73.4051C116.631 73.389 116.979 73.4432 117.305 73.5645C117.637 73.6706 117.942 73.8473 118.199 74.0825C118.456 74.3177 118.66 74.6058 118.795 74.927C118.93 75.2482 118.995 75.5949 118.983 75.9433C118.972 76.2917 118.885 76.6335 118.729 76.9452C118.488 77.4041 118.729 77.5973 118.947 77.887L125.563 83.5377Z" fill="black"/>
<path d="M150.726 99.5474C150.69 99.1626 150.735 98.7745 150.857 98.408C150.98 98.0414 151.177 97.7045 151.438 97.4188C151.698 97.133 152.015 96.9048 152.369 96.7486C152.722 96.5924 153.104 96.5117 153.491 96.5117C153.877 96.5117 154.26 96.5924 154.613 96.7486C154.967 96.9048 155.284 97.133 155.544 97.4188C155.804 97.7045 156.002 98.0414 156.124 98.408C156.247 98.7745 156.292 99.1626 156.256 99.5474C156.237 100.271 155.936 100.959 155.417 101.464C154.898 101.97 154.203 102.252 153.479 102.252C152.757 102.252 152.064 101.969 151.549 101.463C151.034 100.957 150.738 100.269 150.726 99.5474Z" fill="black"/>
<path d="M136.961 99.5938C136.958 99.9585 136.883 100.319 136.741 100.655C136.598 100.99 136.391 101.295 136.131 101.55C135.871 101.806 135.563 102.008 135.225 102.145C134.887 102.281 134.525 102.35 134.16 102.347C133.775 102.383 133.387 102.338 133.021 102.215C132.654 102.093 132.317 101.895 132.031 101.635C131.746 101.375 131.517 101.058 131.361 100.704C131.205 100.35 131.124 99.9682 131.124 99.5817C131.124 99.1952 131.205 98.813 131.361 98.4595C131.517 98.1059 131.746 97.7889 132.031 97.5286C132.317 97.2684 132.654 97.0706 133.021 96.9481C133.387 96.8255 133.775 96.7808 134.16 96.8168C134.528 96.8103 134.893 96.8775 135.234 97.0145C135.575 97.1515 135.886 97.3554 136.147 97.6142C136.408 97.8731 136.614 98.1816 136.754 98.5216C136.894 98.8616 136.965 99.2262 136.961 99.5938Z" fill="black"/>
<path d="M305.854 125.578C305.564 125.747 305.274 125.94 304.96 126.085C303.969 126.683 302.834 127 301.676 127C300.518 127 299.383 126.683 298.392 126.085C297.364 125.521 296.516 124.677 295.948 123.651C295.379 122.626 295.113 121.46 295.18 120.289C295.446 110.219 295.76 100.149 296.049 90.0797C296.074 89.949 296.051 89.8137 295.985 89.6985C295.918 89.5833 295.813 89.4958 295.687 89.4518C294.054 88.6845 292.594 87.5936 291.395 86.2453C290.196 84.8971 289.284 83.3194 288.713 81.608C288.141 79.8966 287.924 78.0871 288.072 76.289C288.221 74.491 288.733 72.7418 289.578 71.1475C290.322 69.6744 291.338 68.3552 292.572 67.2597C292.751 67.0265 293.001 66.8579 293.284 66.7795C293.567 66.7011 293.868 66.7171 294.142 66.825C294.389 66.957 294.59 67.1627 294.715 67.4136C294.841 67.6646 294.885 67.9483 294.842 68.2256C294.842 71.0509 294.842 73.8521 294.842 76.6774C294.83 76.8128 294.862 76.9485 294.931 77.0653C295 77.1822 295.104 77.2746 295.228 77.3294C297.257 78.3437 299.261 79.382 301.265 80.4204C301.382 80.4907 301.516 80.5278 301.652 80.5278C301.788 80.5278 301.922 80.4907 302.038 80.4204C304.043 79.3579 306.047 78.3195 308.075 77.3053C308.194 77.2584 308.293 77.1739 308.359 77.0648C308.424 76.9556 308.452 76.828 308.437 76.7016V68.1531C308.397 67.8892 308.444 67.6193 308.571 67.3843C308.698 67.1493 308.897 66.9618 309.14 66.8501C309.382 66.7384 309.655 66.7085 309.916 66.7649C310.176 66.8214 310.412 66.9611 310.587 67.1631C313.169 69.419 314.789 72.579 315.113 75.993C315.436 79.4069 314.438 82.8149 312.325 85.5157C311.039 87.1507 309.384 88.4581 307.496 89.3311C307.368 89.3797 307.262 89.4718 307.196 89.5911C307.13 89.7103 307.107 89.8492 307.133 89.9831C307.52 99.8999 307.898 109.817 308.268 119.734C308.371 121.371 307.901 122.993 306.94 124.322L305.854 125.578ZM303.439 119.033C303.214 118.807 302.947 118.627 302.653 118.505C302.359 118.382 302.043 118.319 301.724 118.319C301.406 118.319 301.09 118.382 300.796 118.505C300.501 118.627 300.234 118.807 300.01 119.033C299.56 119.486 299.308 120.098 299.308 120.736C299.308 121.374 299.56 121.986 300.01 122.438C300.235 122.668 300.503 122.851 300.8 122.976C301.096 123.101 301.415 123.165 301.736 123.165C302.058 123.165 302.376 123.101 302.673 122.976C302.969 122.851 303.238 122.668 303.463 122.438C303.9 121.973 304.135 121.354 304.117 120.716C304.099 120.078 303.829 119.473 303.366 119.033H303.439Z" fill="black"/>
<path d="M11.8738 22.6807H28.9224V32.34H11.8738V38.9324H30.4196V49.4369H1.07953V5.39062H30.3954V15.8468H11.8738V22.6807Z" fill="black"/>
<path d="M36.022 5.39062H46.7438V38.4495H63.8648V49.4369H36.022V5.39062Z" fill="black"/>
<path d="M78.8367 22.6807H95.8853V32.34H78.8367V38.9324H97.3825V49.4369H68.0666V5.39062H97.3825V15.8468H78.8367V22.6807Z" fill="black"/>
<path d="M162.607 15.4871V49.0047H151.933V15.4871H140.656V4.91016H173.787V15.4871H162.607Z" fill="black"/>
<path d="M190.57 35.0208H188.663V49.0026H177.941V4.98047H194.845C203.538 4.98047 210.251 9.1581 210.493 19.4694C210.493 27.6073 207.329 32.2196 202.234 33.9583L213.704 49.075H200.35L190.57 35.0208ZM194.917 25.3615C195.607 25.4094 196.3 25.3147 196.953 25.0833C197.605 24.852 198.203 24.4889 198.709 24.0167C199.215 23.5445 199.619 22.9732 199.895 22.3384C200.17 21.7036 200.313 21.0188 200.313 20.3266C200.313 19.6345 200.17 18.9497 199.895 18.3149C199.619 17.6801 199.215 17.1088 198.709 16.6366C198.203 16.1644 197.605 15.8013 196.953 15.5699C196.3 15.3386 195.607 15.2439 194.917 15.2917H188.687V25.3615H194.917Z" fill="black"/>
<path d="M255.505 4.98047H265.623L275.789 23.7677L279.339 32.5818H279.653C279.653 32.5818 278.518 24.9993 278.446 24.9993V4.98047H289.047V49.0026H278.276L268.762 31.6642L265.067 22.826H264.778L266.154 31.3261V48.9301H255.505V4.98047Z" fill="black"/>
<path d="M306.337 49.0026H295.687V4.98047H306.337V49.0026Z" fill="black"/>
<path d="M343.718 39.7296C342.39 42.6484 340.259 45.1292 337.573 46.8823C334.888 48.6354 331.76 49.5885 328.553 49.6303C320.294 49.6303 311.963 44.5834 311.963 34.586V19.3968C311.963 9.44777 320.294 4.35251 328.746 4.35251C331.957 4.3172 335.1 5.27187 337.749 7.08662C340.397 8.90136 342.423 11.4881 343.549 14.4947L334.856 18.1653C332.006 12.6836 322.612 13.9393 322.612 19.3968V34.586C322.612 39.8745 332.127 41.3475 334.445 35.2622L343.718 39.7296Z" fill="black"/>
<path d="M235.027 5.80078C235.488 5.90848 235.956 5.98114 236.428 6.01811C240.559 6.72313 244.367 8.7009 247.319 11.6752C250.272 14.6494 252.222 18.4716 252.897 22.6079C252.897 23.2358 253.066 23.9119 253.138 24.5398C253.138 24.5398 253.138 24.7088 253.138 24.7571V26.6648C252.704 27.3168 252.317 27.51 251.858 27.3651C251.4 27.2202 251.134 26.8338 251.11 25.9887C251.086 21.9602 249.737 18.0516 247.271 14.8658C244.805 11.68 241.36 9.39405 237.466 8.36049C236.23 8.07427 234.967 7.92046 233.699 7.90167C232.999 7.90167 232.588 7.61189 232.492 7.05649C232.438 6.79157 232.485 6.51612 232.623 6.28393C232.762 6.05174 232.982 5.87948 233.24 5.80078H235.027Z" fill="black"/>
<path d="M226.793 14.0375C227.058 14.3514 227.3 14.617 227.517 14.9068C227.734 15.1966 227.734 15.0759 227.903 14.9068C228.925 14.1822 230.113 13.7255 231.357 13.5787H231.815C231.893 13.5991 231.961 13.6446 232.01 13.7079C232.058 13.7712 232.085 13.8489 232.085 13.9288C232.085 14.0087 232.058 14.0864 232.01 14.1497C231.961 14.2131 231.893 14.2585 231.815 14.279L231.139 14.3031C229.998 14.5042 228.921 14.9762 228 15.6796C227.59 15.9693 227.541 15.9693 227.203 15.6796L226.334 14.6653C226.334 14.6653 226.189 14.448 226.044 14.6653C224.843 15.5163 223.784 16.5513 222.905 17.7322L226.406 20.6541C226.94 19.7737 227.581 18.9626 228.314 18.2393C230.118 16.5858 232.46 15.6421 234.906 15.583C235.438 15.583 235.752 15.8003 235.776 16.235C235.8 16.6696 235.486 16.9594 234.931 16.9836C233.334 17.008 231.775 17.4716 230.425 18.3236C229.075 19.1755 227.985 20.3829 227.276 21.8132C226.407 23.2023 225.925 24.7981 225.879 26.4358C225.834 28.0735 226.227 29.6937 227.017 31.1288C227.807 32.564 228.966 33.7621 230.374 34.5994C231.783 35.4367 233.389 35.8828 235.027 35.8916C235.125 35.8847 235.224 35.8986 235.316 35.9323C235.408 35.9659 235.492 36.0186 235.563 36.0869C235.634 36.1553 235.689 36.2377 235.726 36.3288C235.762 36.42 235.779 36.5178 235.776 36.616C235.777 36.7136 235.757 36.8102 235.717 36.8992C235.677 36.9882 235.618 37.0676 235.545 37.1318C235.471 37.1961 235.385 37.2436 235.291 37.2713C235.198 37.299 235.1 37.3061 235.003 37.2922C233.103 37.2663 231.249 36.7099 229.649 35.6858C228.049 34.6617 226.767 33.2107 225.947 31.4966C225.803 31.1827 225.682 31.0861 225.344 31.2068C223.847 31.7381 222.349 32.2211 220.852 32.704C220.538 32.704 220.514 32.8972 220.635 33.187C221.436 35.1583 222.724 36.8946 224.378 38.234L224.74 38.5479C224.78 38.5795 224.813 38.6199 224.835 38.6659C224.857 38.7119 224.869 38.7624 224.869 38.8135C224.869 38.8647 224.857 38.9151 224.835 38.9612C224.813 39.0072 224.78 39.0475 224.74 39.0791C224.711 39.1191 224.673 39.1515 224.629 39.1739C224.585 39.1963 224.536 39.208 224.486 39.208C224.437 39.208 224.388 39.1963 224.344 39.1739C224.3 39.1515 224.262 39.1191 224.233 39.0791C222.289 37.5734 220.787 35.5712 219.886 33.2836C219.886 32.9697 219.669 32.9455 219.403 33.0421L217.327 33.7424C218.169 35.7764 219.371 37.6416 220.876 39.2482C222.453 40.9634 224.362 42.3402 226.488 43.295C228.613 44.2497 230.911 44.7625 233.24 44.8023C233.416 44.7784 233.595 44.7784 233.771 44.8023C234 44.8831 234.194 45.0397 234.322 45.2462C234.449 45.4527 234.502 45.6965 234.472 45.9372C234.443 46.1871 234.324 46.4178 234.137 46.5866C233.951 46.7554 233.709 46.8507 233.458 46.8549C232.248 46.8671 231.042 46.7457 229.859 46.4926C226.81 45.8793 223.95 44.5501 221.515 42.6147C219.08 40.6792 217.139 38.1928 215.853 35.3603C214.256 32.0936 213.572 28.4556 213.873 24.8317C214.186 20.5111 215.831 16.3938 218.582 13.0474C218.654 12.9145 218.753 12.7988 218.874 12.7083C218.995 12.6178 219.134 12.5548 219.282 12.5235C219.429 12.4922 219.582 12.4936 219.729 12.5273C219.876 12.5611 220.014 12.6265 220.133 12.7191C220.253 12.8116 220.35 12.929 220.419 13.0631C220.489 13.1972 220.528 13.3448 220.534 13.4956C220.54 13.6464 220.514 13.7967 220.456 13.9362C220.399 14.0757 220.311 14.2009 220.2 14.3031C219.588 15.0729 219.024 15.8793 218.51 16.7179C216.537 20.1817 215.693 24.1742 216.095 28.14C216.248 29.7461 216.597 31.3274 217.133 32.8489C217.133 33.0662 217.278 33.1145 217.52 33.0421L225.295 30.4582C225.537 30.4582 225.537 30.2892 225.464 30.0477C224.973 28.639 224.768 27.1459 224.864 25.6569C224.959 24.1678 225.352 22.713 226.02 21.3785C226.02 21.1612 226.02 21.0646 226.02 20.8956C225.006 20.0745 223.967 19.2052 222.977 18.3359C222.712 18.1185 222.615 18.3359 222.47 18.3359C221.035 20.5727 220.249 23.1644 220.2 25.8218C220.188 25.9342 220.188 26.0475 220.2 26.1599C220.2 26.3772 220.2 26.5221 219.886 26.5221C219.572 26.5221 219.548 26.3531 219.548 26.1357C219.536 25.4326 219.585 24.7297 219.693 24.0348C219.962 21.9313 220.682 19.9106 221.803 18.1103C222.924 16.3101 224.42 14.7727 226.189 13.6028C228.028 12.3497 230.155 11.5852 232.371 11.3812C232.733 11.3812 233.047 11.3812 233.24 10.9224C233.318 10.7905 233.433 10.6839 233.57 10.6154C233.707 10.5469 233.861 10.5193 234.013 10.536C235.854 10.6446 237.657 11.1036 239.326 11.8883C239.531 11.9645 239.707 12.1036 239.828 12.2858C239.95 12.4679 240.01 12.6838 240.002 12.9025C239.991 12.9786 240.007 13.0559 240.047 13.1218C240.086 13.1876 240.147 13.238 240.219 13.2647C241.087 13.7416 241.897 14.3169 242.634 14.9793C242.693 15.0243 242.765 15.0487 242.839 15.0487C242.913 15.0487 242.985 15.0243 243.044 14.9793C243.231 14.8685 243.452 14.8295 243.665 14.8695C243.878 14.9095 244.07 15.0258 244.203 15.1966C245.573 16.5864 246.663 18.2259 247.415 20.0262C247.53 20.2303 247.569 20.4684 247.524 20.6983C247.48 20.9282 247.356 21.135 247.174 21.2819C247.123 21.3428 247.095 21.4198 247.095 21.4993C247.095 21.5788 247.123 21.6557 247.174 21.7166C247.496 22.664 247.715 23.6438 247.826 24.6385C247.826 24.8317 247.826 24.88 248.067 24.9283C248.301 24.9849 248.507 25.1229 248.649 25.3175C248.79 25.5122 248.858 25.7508 248.84 25.9908C248.892 27.9192 248.597 29.8412 247.971 31.6657C247.95 31.791 247.905 31.911 247.838 32.0189C247.771 32.1268 247.684 32.2204 247.58 32.2944C247.477 32.3684 247.36 32.4214 247.237 32.4502C247.113 32.4791 246.985 32.4833 246.86 32.4625C246.691 32.4625 246.667 32.4625 246.618 32.6557C246.194 33.5909 245.676 34.4809 245.073 35.312C245.073 35.4569 245.073 35.5294 245.073 35.6743C245.199 35.8777 245.252 36.1187 245.221 36.3564C245.19 36.5941 245.078 36.8138 244.904 36.9783C243.663 38.4056 242.164 39.5855 240.485 40.4556C240.301 40.5664 240.086 40.6145 239.873 40.5927C239.659 40.5709 239.459 40.4804 239.301 40.3349C239.301 40.19 239.06 40.2141 238.915 40.3349C237.999 40.7144 237.043 40.9898 236.066 41.1559C235.99 41.155 235.917 41.1814 235.859 41.2301C235.801 41.2789 235.763 41.3469 235.752 41.4215C235.693 41.603 235.581 41.7624 235.43 41.8788C235.279 41.9952 235.097 42.0631 234.906 42.0735C234.561 42.0976 234.214 42.0976 233.868 42.0735C233.735 42.0673 233.604 42.0349 233.483 41.9781C233.363 41.9214 233.254 41.8413 233.165 41.7426C233.075 41.6439 233.006 41.5285 232.961 41.403C232.915 41.2774 232.896 41.1442 232.902 41.011C232.899 40.8778 232.922 40.7453 232.97 40.621C233.018 40.4967 233.09 40.3831 233.182 40.2867C233.274 40.1903 233.384 40.1129 233.506 40.059C233.628 40.0051 233.759 39.9758 233.892 39.9726H234.737C234.871 39.947 235.009 39.9581 235.136 40.0049C235.264 40.0517 235.377 40.1324 235.462 40.2383C235.535 40.3302 235.634 40.3979 235.746 40.4324C235.858 40.4669 235.978 40.4666 236.09 40.4314C236.979 40.2475 237.852 39.989 238.698 39.6587C238.78 39.6357 238.853 39.5892 238.909 39.5248C238.965 39.4604 239.001 39.381 239.012 39.2965C239.048 39.1561 239.115 39.0253 239.206 38.9128C239.298 38.8003 239.413 38.7088 239.543 38.6445C241.035 37.8767 242.37 36.8365 243.479 35.5777C243.544 35.4814 243.63 35.401 243.73 35.3424C243.831 35.2839 243.943 35.2488 244.059 35.2396C244.324 35.2396 244.445 35.0947 244.59 34.9015C245.147 34.1011 245.632 33.2526 246.039 32.366C246.075 32.282 246.093 32.1916 246.093 32.1003C246.093 32.009 246.075 31.9187 246.039 31.8347C245.979 31.7146 245.948 31.5824 245.948 31.4483C245.948 31.3143 245.979 31.182 246.039 31.062C246.589 29.4631 246.842 27.7773 246.787 26.0874C246.765 25.8645 246.825 25.6412 246.956 25.4596C247.042 25.3524 247.102 25.2269 247.131 25.0929C247.16 24.9589 247.158 24.82 247.125 24.6868C247.008 23.7168 246.79 22.7617 246.473 21.8373C246.473 21.7166 246.473 21.5717 246.28 21.5234C246.124 21.4549 245.984 21.3553 245.868 21.2307C245.751 21.1062 245.662 20.9593 245.604 20.799C244.966 19.2814 244.048 17.8971 242.899 16.7179C242.766 16.6118 242.659 16.4755 242.587 16.3203C242.516 16.165 242.482 15.9952 242.489 15.8245C242.49 15.7587 242.475 15.6936 242.446 15.6348C242.416 15.576 242.373 15.5251 242.32 15.4864C241.581 14.8199 240.771 14.2368 239.905 13.7477C239.85 13.7046 239.782 13.6812 239.712 13.6812C239.642 13.6812 239.574 13.7046 239.519 13.7477C239.382 13.8238 239.228 13.8638 239.072 13.8638C238.916 13.8638 238.762 13.8238 238.625 13.7477C237.097 13.1056 235.453 12.785 233.796 12.8059C233.623 12.8143 233.451 12.7761 233.298 12.6954C233.145 12.6147 233.017 12.4944 232.926 12.3471C232.895 12.2812 232.842 12.2283 232.776 12.1975C232.709 12.1666 232.635 12.1598 232.564 12.1781C230.52 12.3313 228.542 12.9686 226.793 14.0375Z" fill="black"/>
<path d="M235.124 31.5197C234.094 31.5827 233.07 31.3347 232.183 30.8081C231.296 30.2814 230.589 29.5004 230.151 28.5663C229.714 27.6323 229.568 26.5884 229.731 25.5701C229.895 24.5519 230.361 23.6063 231.068 22.8561C231.776 22.106 232.693 21.5859 233.7 21.3633C234.707 21.1408 235.758 21.2262 236.716 21.6083C237.673 21.9904 238.494 22.6516 239.072 23.5061C239.649 24.3607 239.956 25.369 239.953 26.4003C239.973 27.7145 239.48 28.9847 238.578 29.9407C237.676 30.8968 236.437 31.4633 235.124 31.5197Z" fill="black"/>
<path d="M243.696 26.2089C243.768 28.5131 242.924 30.7519 241.349 32.4355C239.774 34.119 237.597 35.1101 235.293 35.192C235.191 35.2111 235.087 35.2076 234.988 35.1818C234.888 35.156 234.795 35.1085 234.716 35.0428C234.637 34.9771 234.573 34.8947 234.529 34.8016C234.486 34.7084 234.463 34.6067 234.463 34.5038C234.463 34.4009 234.486 34.2992 234.529 34.206C234.573 34.1129 234.637 34.0305 234.716 33.9648C234.795 33.8991 234.888 33.8516 234.988 33.8258C235.087 33.8001 235.191 33.7966 235.293 33.8156C236.947 33.7922 238.536 33.1653 239.76 32.0528C240.879 31.1266 241.694 29.8853 242.099 28.4901C242.504 27.0948 242.48 25.6101 242.03 24.2288C241.712 22.8575 240.99 21.6133 239.956 20.6575C238.923 19.7017 237.626 19.0782 236.234 18.8679H235.22C235.122 18.8715 235.024 18.8544 234.933 18.8177C234.842 18.7811 234.759 18.7256 234.691 18.655C234.623 18.5844 234.57 18.5002 234.536 18.4079C234.503 18.3156 234.489 18.2173 234.496 18.1193C234.502 18.0241 234.527 17.931 234.569 17.8454C234.611 17.7599 234.67 17.6835 234.742 17.6207C234.813 17.5578 234.897 17.5098 234.987 17.4793C235.078 17.4489 235.173 17.4366 235.269 17.4431C237.267 17.5199 239.179 18.2817 240.683 19.6007C242.186 20.9198 243.191 22.7158 243.527 24.6876C243.631 25.1882 243.688 25.6976 243.696 26.2089Z" fill="black"/>
<path d="M245.411 27.0039C245.676 27.0039 245.725 27.0039 245.701 27.3661C245.587 28.7597 245.236 30.1236 244.662 31.3989C244.662 31.5438 244.541 31.6887 244.372 31.5196C244.203 31.3506 243.889 31.5196 244.059 31.0608C244.524 30.0339 244.833 28.9432 244.976 27.8249C244.964 27.6803 244.964 27.5349 244.976 27.3903C245.049 27.0039 245.049 27.0039 245.411 27.0039Z" fill="black"/>
<path d="M243.817 19.8079L243.382 20.0976C243.238 20.0976 243.189 20.0976 243.117 19.9769C242.787 19.4716 242.416 18.995 242.006 18.5522C241.559 18.0607 241.057 17.623 240.509 17.2482C240.147 17.0067 240.509 16.8376 240.509 16.6445C240.509 16.4513 240.774 16.6445 240.871 16.6445C241.982 17.4296 242.94 18.4118 243.696 19.5422L243.817 19.8079Z" fill="black"/>
<path d="M245.701 25.2675C245.701 25.4366 245.701 25.6539 245.507 25.6297C245.314 25.6056 245.024 25.7505 245 25.34C244.925 24.0673 244.605 22.8211 244.059 21.6694C243.865 21.2589 244.059 21.2589 244.324 21.1382C244.59 21.0174 244.59 21.1382 244.662 21.3314C245.232 22.5739 245.584 23.9055 245.701 25.2675Z" fill="black"/>
<path d="M240.654 36.2313L240.364 35.7242C240.364 35.5793 240.364 35.5551 240.364 35.5068C241.432 34.7323 242.356 33.776 243.093 32.6815C243.31 32.3434 243.455 32.6815 243.624 32.6815C243.793 32.6815 243.624 32.8747 243.624 32.9713C242.907 34.157 241.973 35.1973 240.871 36.0381L240.654 36.2313Z" fill="black"/>
<path d="M236.959 37.8473C236.873 37.8475 236.791 37.8153 236.728 37.757C236.665 37.6987 236.627 37.6188 236.621 37.5334C236.621 37.2919 236.621 37.1953 236.911 37.1229L238.094 36.7848C238.384 36.7848 238.649 36.5433 238.939 36.4226C239.229 36.3018 239.156 36.3018 239.253 36.4226C239.35 36.5433 239.519 36.8331 239.084 37.0504C238.455 37.3367 237.8 37.5631 237.128 37.7266L236.959 37.8473Z" fill="black"/>
<path d="M236.983 14.7852C237.819 14.9912 238.629 15.2909 239.398 15.6786C239.567 15.6786 239.398 15.8718 239.398 15.9684C239.398 16.065 239.398 16.4272 239.011 16.2823C238.34 15.9461 237.636 15.6791 236.911 15.4855C236.833 15.465 236.765 15.4196 236.716 15.3562C236.668 15.2929 236.641 15.2152 236.641 15.1353C236.641 15.0554 236.668 14.9777 236.716 14.9144C236.765 14.8511 236.833 14.8056 236.911 14.7852H236.983Z" fill="black"/>
<path d="M353.933 14.8571C352.873 15.0491 351.864 15.4572 350.969 16.0559C350.074 16.6546 349.311 17.4311 348.729 18.3372C348.147 19.2433 347.758 20.2594 347.585 21.3225C347.413 22.3855 347.461 23.4727 347.727 24.5164C348.115 26.196 349.063 27.6938 350.414 28.7643C351.765 29.8348 353.44 30.4146 355.164 30.4085H380.496C382.769 30.453 384.934 31.3941 386.517 33.0269C388.1 34.6597 388.973 36.8519 388.947 39.126C389.013 40.3004 388.839 41.4758 388.436 42.5807C388.033 43.6857 387.409 44.697 386.602 45.5532C385.796 46.4094 384.823 47.0925 383.745 47.5609C382.666 48.0294 381.503 48.2734 380.327 48.2782H354.923C354.462 48.2439 354.03 48.044 353.706 47.7154C353.382 47.3869 353.188 46.9519 353.16 46.4912C353.111 46.0286 353.23 45.5638 353.497 45.1823C353.763 44.8008 354.158 44.5282 354.609 44.4144C354.881 44.3776 355.157 44.3776 355.43 44.4144H380.423C381.153 44.413 381.873 44.2461 382.529 43.9263C383.186 43.6065 383.761 43.1421 384.212 42.568C384.663 41.9939 384.978 41.3251 385.133 40.6118C385.288 39.8986 385.279 39.1594 385.108 38.4499C384.969 37.2806 384.395 36.2064 383.5 35.4412C382.605 34.676 381.455 34.2759 380.278 34.3205H355.382C354.638 34.3243 353.895 34.2678 353.16 34.1515C350.182 33.5643 347.548 31.8438 345.814 29.3526C344.079 26.8615 343.38 23.7943 343.863 20.7975C344.184 18.2526 345.348 15.8884 347.168 14.0811C348.989 12.2739 351.361 11.1274 353.908 10.8243C354.198 10.8243 354.295 10.8243 354.367 10.4138C354.825 7.82113 356.168 5.46756 358.167 3.75452C360.167 2.04149 362.698 1.0751 365.331 1.02018H373.855C374.141 1.00062 374.428 1.04424 374.695 1.14795C374.963 1.25166 375.204 1.41292 375.402 1.62031C375.601 1.82769 375.751 2.07612 375.842 2.34799C375.934 2.61986 375.964 2.90852 375.932 3.19351V4.88389H376.511C379.53 4.88389 382.548 4.88389 385.567 4.88389C386.016 4.89249 386.447 5.06356 386.78 5.36544C387.113 5.66733 387.325 6.07959 387.378 6.52596C387.457 6.97797 387.374 7.44332 387.145 7.84061C386.915 8.2379 386.553 8.54185 386.122 8.6993C385.825 8.73451 385.525 8.73451 385.229 8.6993H375.956V16.7165H385.229C385.525 16.6695 385.826 16.6695 386.122 16.7165C386.553 16.8739 386.915 17.1779 387.145 17.5752C387.374 17.9725 387.457 18.4378 387.378 18.8898C387.325 19.3362 387.113 19.7485 386.78 20.0503C386.447 20.3522 386.016 20.5233 385.567 20.5319H375.907V22.3672C375.921 22.633 375.879 22.8987 375.785 23.1477C375.691 23.3966 375.546 23.6234 375.36 23.8139C375.175 24.0044 374.951 24.1543 374.705 24.2544C374.458 24.3545 374.193 24.4026 373.927 24.3956C371.005 24.3956 368.059 24.3956 365.113 24.3956C362.415 24.4031 359.818 23.3645 357.869 21.4978C355.911 19.7045 354.61 17.307 354.174 14.688C354.089 14.7377 354.008 14.7943 353.933 14.8571ZM367.939 4.98048C366.7 4.90811 365.458 4.90811 364.22 4.98048C362.396 5.31112 360.753 6.29021 359.595 7.73706C358.437 9.18392 357.841 11.0009 357.917 12.8528C357.891 14.862 358.661 16.7999 360.059 18.2432C361.457 19.6865 363.37 20.5179 365.379 20.5561H372.116V4.98048C370.716 4.98048 369.267 4.95633 367.939 4.98048Z" fill="black"/>
<path d="M131.117 1.76953C131.552 1.76953 131.987 1.98686 132.421 2.13175C133.923 2.68447 135.199 3.71861 136.051 5.0728C136.903 6.427 137.282 8.02508 137.13 9.61769C136.998 11.2396 136.323 12.7696 135.215 13.9612C134.106 15.1528 132.629 15.9365 131.021 16.186C129.442 16.3394 127.858 15.9425 126.538 15.0624C125.218 14.1823 124.242 12.8731 123.776 11.3564C123.632 10.9217 123.463 10.7527 123.004 10.7527H110.881C110.374 10.7527 110.229 10.9217 110.253 11.453C110.253 12.4189 110.253 13.3848 110.253 14.3507C110.253 14.882 110.422 15.0027 110.881 14.9786C111.799 14.9786 112.741 14.9786 113.658 14.9786C113.914 14.9591 114.17 14.9964 114.41 15.0876C114.649 15.1789 114.865 15.3219 115.043 15.5065C115.221 15.6911 115.355 15.9127 115.438 16.1554C115.52 16.3981 115.547 16.6559 115.518 16.9104V40.6722C115.551 40.9308 115.527 41.1937 115.445 41.4413C115.363 41.689 115.227 41.9151 115.046 42.1029C114.865 42.2908 114.644 42.4355 114.4 42.5264C114.156 42.6174 113.894 42.6522 113.634 42.6282H110.592C110.278 42.6282 110.157 42.749 110.157 43.0871C110.157 44.1979 110.157 45.3087 110.157 46.3954C110.157 46.7334 110.157 46.83 110.567 46.83H123.197C123.535 46.83 123.583 46.6127 123.68 46.3712C123.958 45.3718 124.461 44.4491 125.15 43.6736C125.839 42.8982 126.696 42.2904 127.656 41.8967C128.616 41.503 129.653 41.3337 130.688 41.4019C131.723 41.4701 132.729 41.774 133.629 42.2902C134.898 43.0659 135.903 44.2078 136.511 45.5656C137.118 46.9234 137.301 48.4334 137.034 49.8968C136.778 51.3232 136.101 52.6402 135.09 53.6776C134.078 54.715 132.778 55.4253 131.359 55.7166C129.714 55.9837 128.027 55.6402 126.617 54.7507C125.207 53.8612 124.171 52.4871 123.704 50.8869C123.674 50.7224 123.583 50.5755 123.448 50.4766C123.313 50.3777 123.145 50.3344 122.98 50.3557C118.271 50.3557 113.562 50.3557 108.853 50.3557C108.559 50.3819 108.262 50.3404 107.987 50.2342C107.711 50.128 107.463 49.96 107.263 49.7431C107.062 49.5262 106.914 49.2662 106.83 48.983C106.745 48.6999 106.727 48.4012 106.776 48.1099C106.776 46.4678 106.776 44.8499 106.776 43.2802V42.6282H103.637C103.406 42.622 103.179 42.5701 102.969 42.4754C102.759 42.3806 102.57 42.2451 102.413 42.0765C102.255 41.908 102.133 41.7099 102.053 41.4936C101.973 41.2774 101.937 41.0475 101.946 40.8171V17.1278C101.946 15.6306 102.574 14.9786 103.999 14.9786H106.776V14.3024C106.776 12.6604 106.776 11.0183 106.776 9.4728C106.731 9.18011 106.753 8.88102 106.841 8.59811C106.928 8.31519 107.079 8.05583 107.281 7.83957C107.483 7.62332 107.732 7.45582 108.009 7.34971C108.285 7.2436 108.582 7.20165 108.877 7.22702C113.562 7.22702 118.222 7.22702 122.907 7.22702C123.095 7.24865 123.284 7.19843 123.436 7.08645C123.589 6.97446 123.693 6.80901 123.728 6.62331C124.093 5.39139 124.795 4.28612 125.755 3.43259C126.715 2.57905 127.895 2.01133 129.161 1.79368H129.403L131.117 1.76953ZM105.279 18.6733V39.1509H111.992V18.5525L105.279 18.6733ZM133.75 9.01398C133.79 8.52809 133.729 8.03912 133.571 7.57796C133.412 7.1168 133.16 6.69348 132.83 6.33475C132.5 5.97602 132.099 5.68967 131.652 5.49381C131.206 5.29794 130.724 5.19682 130.236 5.19682C129.749 5.19682 129.266 5.29794 128.82 5.49381C128.373 5.68967 127.972 5.97602 127.642 6.33475C127.312 6.69348 127.06 7.1168 126.901 7.57796C126.743 8.03912 126.682 8.52809 126.723 9.01398C126.682 9.49988 126.743 9.98885 126.901 10.45C127.06 10.9112 127.312 11.3345 127.642 11.6932C127.972 12.052 128.373 12.3383 128.82 12.5342C129.266 12.73 129.749 12.8312 130.236 12.8312C130.724 12.8312 131.206 12.73 131.652 12.5342C132.099 12.3383 132.5 12.052 132.83 11.6932C133.16 11.3345 133.412 10.9112 133.571 10.45C133.729 9.98885 133.79 9.49988 133.75 9.01398ZM133.75 48.617C133.726 47.9264 133.5 47.2579 133.099 46.6947C132.699 46.1315 132.142 45.6985 131.497 45.4493C130.853 45.2002 130.149 45.1459 129.474 45.2934C128.799 45.4408 128.182 45.7834 127.7 46.2785C127.218 46.7737 126.892 47.3996 126.763 48.0784C126.633 48.7573 126.707 49.4591 126.973 50.0968C127.239 50.7344 127.687 51.2797 128.261 51.6649C128.835 52.0501 129.509 52.2582 130.2 52.2634C130.674 52.2571 131.143 52.157 131.579 51.9688C132.015 51.7806 132.409 51.5081 132.739 51.1669C133.069 50.8258 133.328 50.4227 133.501 49.9809C133.675 49.5391 133.759 49.0674 133.75 48.5928V48.617Z" fill="black"/>
<path d="M40.6826 108.046L36.2634 111.668L45.15 122.777H31.1923L28.0048 118.961C18.2006 127.51 1.00711 122.487 1.00711 107.781C0.9253 105.325 1.55096 102.897 2.80962 100.786C4.06829 98.6755 5.90693 96.971 8.10667 95.8755C-0.0554101 87.3271 7.04415 74.6734 18.6594 75.084C20.3105 75.0455 21.953 75.3331 23.4928 75.9303C25.0326 76.5276 26.4395 77.4227 27.6328 78.5645C28.8262 79.7062 29.7826 81.0722 30.4472 82.5841C31.1119 84.096 31.4718 85.7242 31.5063 87.3754C31.5901 89.539 31.1032 91.6867 30.0944 93.6026C29.0856 95.5185 27.5904 97.1352 25.759 98.2904L29.6951 103.12L33.9694 99.4495L40.6826 108.046ZM15.1096 104.11C14.5057 104.396 13.9717 104.811 13.5448 105.325C13.118 105.84 12.8086 106.441 12.6384 107.087C12.4682 107.734 12.4413 108.409 12.5595 109.067C12.6777 109.725 12.9381 110.349 13.3227 110.896C13.7744 111.473 14.3517 111.94 15.0106 112.261C15.6696 112.582 16.393 112.749 17.126 112.749C17.859 112.749 18.5824 112.582 19.2414 112.261C19.9004 111.94 20.4776 111.473 20.9294 110.896L15.1096 104.11ZM15.327 87.5927C15.327 88.8001 16.5344 90.2007 17.7418 91.7221C19.8185 90.3215 21.0259 89.114 21.0259 87.3754C21.0525 86.6507 20.7945 85.9444 20.3072 85.4074C19.8198 84.8705 19.1418 84.5454 18.4179 84.5017C17.6021 84.5142 16.8231 84.8439 16.2461 85.4209C15.6691 85.9978 15.3394 86.7768 15.327 87.5927V87.5927Z" stroke="black" stroke-miterlimit="10"/>
</svg>
