<svg width="556" height="723" viewBox="0 0 556 723" fill="none" xmlns="http://www.w3.org/2000/svg">
<path d="M671.344 519.658C633.596 550.365 594.685 584.503 555.388 622.325C534.823 642.136 515.303 661.798 496.829 681.258C484.714 682.395 459.443 695.101 445.079 678.311C352.201 569.489 252.449 459.05 145.28 348.057C111.55 313.069 77.8313 278.839 44.2018 245.345C42.5179 243.527 33.7234 233.657 33.9926 218.822C34.1794 209.438 37.9319 200.282 45.2332 193.521C59.8664 177.156 75.4684 160.559 92.0351 143.939C135.273 100.574 178.464 63.4962 219.747 31.9727C221.499 30.35 231.023 21.8888 245.836 22.7065C255.207 23.2403 264.481 27.344 271.497 34.9206C343.525 108.444 416.483 185.048 490.029 264.791C553.116 333.186 613.897 400.954 672.426 467.889C674.085 469.68 682.879 479.55 671.344 519.658Z" fill="#424243" stroke="black" stroke-width="4" stroke-miterlimit="10"/>
<path d="M261.492 68.8524L78.8004 238.025L444.88 633.359L627.572 464.186L261.492 68.8524Z" fill="#C3C2C3" stroke="black" stroke-width="4" stroke-miterlimit="10"/>
<path d="M224.522 137.786C224.522 137.786 247.823 144.203 255.757 125.29" stroke="black" stroke-width="4" stroke-miterlimit="10" stroke-linecap="round"/>
<path d="M154.682 251.483C154.682 251.483 167.499 241.252 162.029 216.225" stroke="black" stroke-width="4" stroke-miterlimit="10" stroke-linecap="round"/>
<path d="M319.759 210.703C303.265 185.843 280.576 171.71 269.082 179.136C257.588 186.563 261.641 212.737 278.135 237.597C294.63 262.457 317.319 276.59 328.813 269.163C340.307 261.737 336.253 235.563 319.759 210.703Z" fill="white" stroke="black" stroke-width="4" stroke-miterlimit="10"/>
<path d="M240.76 296.971C225.76 273.984 204.234 261.294 192.679 268.626C181.124 275.958 183.916 300.537 198.915 323.524C213.914 346.511 235.441 359.201 246.996 351.869C258.551 344.537 255.759 319.958 240.76 296.971Z" fill="white" stroke="black" stroke-width="4" stroke-miterlimit="10"/>
<path d="M242.937 332.682C238.929 325.37 231.51 321.632 226.366 324.332C221.222 327.032 220.301 335.149 224.309 342.461C228.317 349.773 235.737 353.511 240.881 350.811C246.024 348.111 246.945 339.994 242.937 332.682Z" fill="black"/>
<path d="M323.043 248.599C319.034 241.287 311.615 237.549 306.471 240.249C301.327 242.949 300.407 251.066 304.415 258.378C308.423 265.69 315.842 269.428 320.986 266.728C326.13 264.028 327.051 255.911 323.043 248.599Z" fill="black"/>
<path d="M324.362 326.235C333.497 317.776 335.602 305.195 329.064 298.135C322.527 291.074 309.821 292.208 300.686 300.668C291.551 309.127 289.445 321.708 295.983 328.768C302.521 335.828 315.226 334.694 324.362 326.235Z" fill="black"/>
<path d="M188.839 119.702L135.101 169.463C132.791 171.602 129.147 171.394 126.927 168.997L124.427 166.297C122.207 163.9 122.28 160.251 124.59 158.112L178.327 108.351C180.637 106.212 184.282 106.419 186.501 108.816L189.002 111.516C191.221 113.913 191.149 117.563 188.839 119.702Z" fill="#D1D3D4" stroke="black" stroke-width="4" stroke-miterlimit="10"/>
<path d="M572.849 588.296C581.222 580.543 581.487 567.215 573.441 558.526C565.396 549.838 552.086 549.08 543.714 556.833C535.341 564.586 535.076 577.914 543.121 586.603C551.167 595.291 564.476 596.049 572.849 588.296Z" fill="black" stroke="black" stroke-miterlimit="10"/>
<path d="M321.093 699.775C289.915 732.535 212.23 694.592 181.965 685.814C137.423 672.895 82.7643 661.421 46.1421 628.792C23.0555 608.89 14.3101 586.535 20.5011 553.112C27.9104 518.173 45.2928 503.703 64.3765 497.963C66.7497 492.545 70.3183 485.892 75.5883 479.158C87.3859 464.125 101.11 457.264 108.385 454.283C105.779 460.458 102.076 471.349 101.857 485.01C101.704 494.479 103.277 502.127 104.787 507.389L115.999 512.614C162.833 537.207 227.711 534.038 278.149 553.072C318.5 566.977 364.29 652.88 321.093 699.775Z" fill="#AABCE1"/>
<path d="M62.1576 546.779C61.6923 548.294 60.9653 548.958 59.9526 548.739C59.9526 548.739 59.9287 548.706 59.8757 548.668C59.8228 548.629 59.7116 548.58 59.5081 548.541C59.1352 548.443 58.35 548.295 57.2002 548.165C56.6591 550.724 56.1741 552.664 55.7639 554.046C55.3588 555.4 54.343 558.241 52.6979 562.509C52.0747 564.223 51.1099 565.672 49.8375 566.835C48.855 567.737 47.3812 567.89 45.44 567.325C44.8397 567.154 43.8239 566.792 42.3397 566.198C41.3291 565.808 40.3684 565.313 39.4575 564.713C38.5466 564.112 37.7043 563.468 36.9596 562.784C36.2201 562.073 35.5149 561.34 34.9021 560.595C34.4856 560.088 34.2384 559.641 34.0919 559.299C33.9455 558.956 33.9652 558.531 34.1272 557.989C34.2238 557.636 34.4627 557.166 34.7463 556.618C35.0537 556.104 35.5013 555.644 36.0549 555.262C36.6085 554.88 36.999 554.724 37.2608 554.773C37.4591 554.839 37.4996 555.104 37.3532 555.563C37.1361 556.238 37.3553 556.994 38.0107 557.832C38.6712 558.643 39.5167 559.431 40.5522 560.169C41.5877 560.908 42.7209 561.607 43.9516 562.267C44.3858 562.521 44.8885 562.729 45.4306 562.889C46.7133 563.273 47.9441 563.132 49.0887 562.489C49.8344 561.885 50.4046 560.934 50.7941 559.663L51.1181 558.579C51.2698 558.093 51.4006 557.717 51.5107 557.451C51.7672 556.727 52.0788 555.87 52.3977 554.815C52.5597 554.273 52.7165 553.759 52.8391 553.267C52.9616 552.775 53.0842 552.283 53.1829 551.758C53.2815 551.233 53.4249 550.631 53.5838 549.945C53.7115 549.426 53.8413 548.735 53.9493 547.84C53.5952 547.802 53.1008 547.709 52.4506 547.644C51.8056 547.551 51.3008 547.514 50.9415 547.504C50.5821 547.493 50.1594 547.5 49.61 547.539C49.0605 547.579 48.321 547.669 47.3915 547.809C46.3892 547.535 45.766 546.846 45.4825 545.791C45.3329 545.305 45.3235 544.874 45.4305 544.465C45.6133 543.813 46.0693 543.47 46.7641 543.457C48.1694 543.349 49.263 543.297 50.0451 543.301C50.8272 543.305 51.9635 543.347 53.43 543.394C54.236 543.431 54.9786 543.485 55.6527 543.583C56.3319 543.653 57.0932 543.768 57.9761 543.876C58.8589 543.985 59.7469 544.066 60.6349 544.147C61.3755 544.372 61.8522 544.719 62.0599 545.216C62.2729 545.685 62.2957 546.204 62.1576 546.779Z" fill="black"/>
<path d="M78.025 568.728C77.4226 569.53 76.4172 569.913 75.0224 569.966C73.7833 569.991 72.6263 570.059 71.5804 570.177C70.5345 570.295 69.5415 570.452 68.6016 570.647C67.6616 570.843 66.4101 571.094 64.7784 571.445C63.1467 571.796 61.5493 572.126 59.9571 572.427C59.5531 572.494 59.1646 572.478 58.7918 572.38C58.1333 572.199 57.6618 571.824 57.3481 571.25C57.0344 570.676 56.9846 569.98 57.2567 569.173C57.3979 568.742 57.5942 568.178 57.885 567.432C58.1758 566.686 58.5113 565.862 58.8914 564.961C59.2768 564.032 59.6122 563.208 59.8979 562.489C60.1887 561.743 60.4057 561.068 60.6124 560.449C61.812 556.469 62.8828 553.495 63.7957 551.521C63.533 551.157 63.4997 550.693 63.6721 550.096C63.8238 549.61 64.1156 549.178 64.5581 548.747C64.9953 548.342 65.5333 548.043 66.1908 547.909C68.2462 547.866 69.7232 547.858 70.6558 547.861C71.5885 547.865 72.4817 547.918 73.2773 548.011C74.102 548.109 75.339 548.255 76.978 548.506C77.8078 548.576 78.3946 548.658 78.7966 548.762C79.8809 549.08 80.2766 549.698 80.0128 550.621C79.9318 550.892 79.748 551.229 79.4852 551.666C79.1591 552.12 78.8797 552.325 78.5941 552.243C78.565 552.237 78.4539 552.188 78.2846 552.127C78.1153 552.067 77.9751 552.012 77.8639 551.962C77.6946 551.902 77.4568 551.886 77.1608 551.859C75.0679 551.78 73.4456 551.761 72.328 551.78C71.2053 551.827 69.6733 551.968 67.6979 552.226C67.0975 552.857 66.625 553.769 66.2853 554.936C66.1129 555.533 65.9561 556.047 65.8626 556.544C66.6738 556.553 67.6117 556.53 68.6472 556.467C69.7118 556.409 70.8979 556.346 72.2346 556.283C73.5713 556.219 74.7813 556.189 75.9176 556.231C77.0247 556.267 78.0291 556.37 78.9306 556.54C79.4333 556.749 79.614 557.069 79.5019 557.505C79.4863 557.588 79.4312 557.721 79.3367 557.903C79.2422 558.086 79.1872 558.219 79.1373 558.324C78.7177 559.275 78.133 559.823 77.3644 559.907C76.6249 559.997 75.4284 560.115 73.8144 560.213C72.1952 560.337 70.9114 560.44 69.9922 560.524C69.0731 560.609 68.0801 560.766 66.9896 560.961C65.9281 561.162 64.9435 561.435 64.0648 561.785C63.7595 562.128 63.3866 562.83 62.9857 563.842C62.5796 564.881 62.2234 565.816 61.9699 566.683C63.7616 566.763 66.0071 566.67 68.7252 566.465C69.1531 566.431 69.9455 566.38 71.1129 566.256C72.2804 566.132 73.3211 566.042 74.2351 565.985C75.149 565.928 76.1108 565.937 77.0726 565.946C77.3738 565.945 77.6698 565.972 77.9554 566.054C78.643 566.241 78.8559 566.71 78.6627 567.417C78.5744 567.887 78.346 568.302 78.025 568.728Z" fill="black"/>
<path d="M100.118 575.169C99.5161 575.971 98.5107 576.355 97.1158 576.407C95.8767 576.432 94.7197 576.5 93.6738 576.619C92.6279 576.737 91.635 576.893 90.695 577.089C89.7893 577.262 88.5035 577.535 86.8719 577.886C85.2693 578.243 83.6428 578.567 82.0506 578.868C81.6465 578.935 81.2581 578.92 80.8852 578.821C80.2267 578.64 79.7552 578.265 79.4415 577.691C79.1227 577.145 79.0728 576.449 79.3501 575.614C79.4914 575.183 79.6877 574.619 79.9785 573.873C80.2693 573.127 80.6047 572.303 80.9849 571.402C81.3702 570.473 81.7057 569.649 81.9913 568.93C82.2769 568.212 82.4992 567.51 82.7059 566.89C83.9054 562.911 84.9762 559.936 85.8892 557.962C85.6264 557.598 85.5932 557.134 85.7604 556.565C85.912 556.079 86.2039 555.647 86.6463 555.215C87.0888 554.783 87.6216 554.512 88.279 554.378C90.3345 554.335 91.8114 554.326 92.7441 554.33C93.6768 554.334 94.57 554.387 95.3947 554.485C96.2193 554.583 97.4563 554.729 99.0953 554.98C99.9252 555.05 100.512 555.132 100.914 555.236C101.998 555.554 102.394 556.172 102.13 557.095C102.049 557.366 101.86 557.731 101.603 558.141C101.276 558.594 100.997 558.799 100.711 558.717C100.682 558.711 100.571 558.662 100.402 558.601C100.233 558.541 100.092 558.486 99.9813 558.437C99.812 558.376 99.5741 558.36 99.2781 558.333C97.1562 558.249 95.5629 558.236 94.4402 558.282C93.3174 558.329 91.7616 558.437 89.7861 558.695C89.1858 559.326 88.7132 560.238 88.3736 561.404C88.2012 562.001 88.0734 562.521 87.9509 563.013C88.7621 563.022 89.6999 562.998 90.7354 562.935C91.8 562.878 92.9861 562.815 94.3229 562.751C95.6596 562.688 96.8696 562.658 98.0058 562.7C99.113 562.736 100.117 562.839 101.019 563.009C101.522 563.217 101.702 563.537 101.59 563.974C101.575 564.057 101.52 564.19 101.425 564.372C101.33 564.555 101.275 564.687 101.231 564.765C100.811 565.716 100.226 566.264 99.4578 566.348C98.7183 566.438 97.5218 566.557 95.9026 566.681C94.2834 566.806 92.9997 566.908 92.0805 566.993C91.1613 567.078 90.1684 567.234 89.0778 567.43C88.0164 567.631 87.0317 567.904 86.1531 568.253C85.8477 568.597 85.4748 569.299 85.0739 570.311C84.6678 571.35 84.3407 572.29 84.0582 573.152C85.8498 573.231 88.0953 573.138 90.8134 572.934C91.2413 572.9 92.039 572.821 93.2012 572.725C94.3686 572.601 95.4093 572.51 96.3233 572.453C97.2373 572.396 98.1991 572.405 99.1899 572.42C99.4911 572.419 99.7871 572.446 100.073 572.529C100.755 572.743 100.973 573.184 100.78 573.892C100.663 574.356 100.434 574.771 100.118 575.169Z" fill="black"/>
<path d="M121.749 583.755C121.613 584.158 121.318 584.446 120.854 584.674C120.36 584.895 119.903 584.924 119.385 584.798C119.07 584.71 118.776 584.512 118.469 584.225C117.819 584.16 116.761 584.019 115.292 583.829C113.822 583.638 112.701 583.513 111.924 583.482C111.148 583.45 110.297 583.491 109.338 583.625C108.38 583.76 107.162 583.989 105.676 584.367C104.789 584.601 104.06 584.636 103.46 584.466C102.947 584.312 102.576 584.042 102.353 583.628C102.129 583.214 101.903 582.657 101.766 581.944C101.632 581.376 101.683 580.785 101.865 580.132C102.017 579.646 102.206 579.281 102.491 579.048C102.883 578.722 103.487 578.234 104.301 577.586C105.115 576.938 105.959 576.296 106.778 575.62C107.598 574.945 108.48 574.252 109.379 573.477C110.056 572.918 110.846 572.237 111.74 571.489C112.638 570.714 113.457 570.038 114.203 569.435C114.949 568.831 115.724 568.233 116.504 567.607C117.313 566.987 118.117 566.394 118.915 565.829C118.542 565.73 118.117 565.593 117.609 565.412C117.101 565.23 116.757 565.137 116.559 565.071C115.702 564.824 114.615 564.677 113.382 564.674C112.692 564.659 112.206 564.682 111.958 564.721C111.709 564.761 111.393 564.844 110.997 565.027C110.606 565.183 110.245 565.344 109.918 565.482C109.614 565.654 109.308 565.682 108.935 565.584C108.509 565.447 108.109 565.171 107.775 564.708C107.412 564.239 107.175 563.737 107.012 563.163C106.849 562.588 106.855 562.075 106.996 561.643C107.148 561.157 107.482 560.819 107.965 560.653C109.376 560.517 111.722 560.529 115.009 560.66C117.543 560.793 120.282 561.28 123.191 562.141C123.535 562.234 123.877 562.499 124.193 562.901C124.508 563.304 124.721 563.773 124.9 564.264C125.183 565.319 125.202 566.181 125.019 566.833C124.857 567.375 124.518 567.74 123.977 567.896C122.67 568.279 121.401 568.785 120.188 569.472C118.975 570.16 117.775 570.935 116.618 571.805C115.461 572.675 114.038 573.838 112.32 575.289C111.859 575.66 111.398 576.031 110.932 576.429C110.436 576.823 109.97 577.221 109.498 577.648C109.027 578.074 108.595 578.45 108.216 578.865C107.842 579.253 107.571 579.574 107.431 579.834C110.355 579.496 113.14 579.419 115.809 579.635C116.226 579.656 116.644 579.677 117.12 579.709C117.595 579.741 117.984 579.757 118.304 579.817C118.624 579.877 119.031 579.954 119.486 580.097C119.97 580.245 120.395 580.382 120.734 580.503C121.073 580.624 121.349 581.076 121.558 581.888C121.772 582.672 121.832 583.313 121.749 583.755Z" fill="black"/>
<path d="M157.425 594.179C157.908 594.813 158.066 595.415 157.86 596.034C157.768 596.36 157.6 596.615 157.379 596.831C156.634 597.749 155.795 598.049 154.938 597.802C154.681 597.725 154.406 597.588 154.065 597.323C152.777 595.365 151.59 593.826 150.467 592.757C149.343 591.687 147.904 590.53 146.117 589.307C145.235 588.712 144.491 588.344 143.867 588.141C143.325 587.982 142.704 587.922 142.028 587.995C141.789 588.465 141.579 588.941 141.422 589.455C141.245 590.079 141.079 590.964 140.953 592.113C140.827 593.262 140.701 594.097 140.597 594.649C140.369 595.379 139.701 595.568 138.588 595.244C138.39 595.179 138.133 595.102 137.887 594.97C136.926 594.474 136.591 593.696 136.91 592.64C137.638 590.689 138.509 588.135 139.471 584.94C140.038 583.044 140.543 581.48 140.956 580.241L142.55 574.963C142.767 574.288 143.024 573.564 143.325 572.762C143.501 572.309 143.782 571.933 144.198 571.639C144.615 571.345 145 571.218 145.354 571.256C146.184 571.326 146.626 571.38 146.684 571.391C147.284 571.561 147.482 572.113 147.194 573.003C147.114 573.589 146.965 574.219 146.788 574.843C146.54 575.684 146.12 576.635 145.548 577.757C144.975 578.88 144.616 579.67 144.475 580.102C144.373 580.483 144.29 580.925 144.255 581.433C144.624 581.389 145.585 581.083 147.126 580.571C148.673 580.032 149.776 579.61 150.465 579.311C151.623 578.756 152.752 578.196 153.793 577.619C154.835 577.042 155.682 576.544 156.293 576.172C156.91 575.773 157.561 575.352 158.223 574.876C158.885 574.399 159.33 574.111 159.531 574.006C160.293 573.634 160.858 573.511 161.226 573.638C161.511 573.72 161.8 573.946 162.121 574.321C162.389 574.657 162.451 575.127 162.25 575.718C162.093 576.232 161.82 576.724 161.43 577.195C161.041 577.665 160.653 577.964 160.263 578.12C158.791 578.902 157.583 579.561 156.644 580.072C155.705 580.582 154.864 581.053 154.086 581.507C153.308 581.962 152.467 582.433 151.547 583.004C150.598 583.57 149.374 584.312 147.847 585.227C148.594 585.739 149.201 586.196 149.696 586.604C150.191 587.012 150.801 587.613 151.559 588.385C152.318 589.157 152.956 589.763 153.441 590.226C154.008 590.733 154.523 591.202 155.013 591.637C155.503 592.072 155.916 592.436 156.219 592.75C156.645 593.203 157.019 593.616 157.425 594.179Z" fill="black"/>
<path d="M168.817 585.792C168.605 586.439 168.254 587.346 167.754 588.568C167.282 589.795 166.947 590.619 166.771 591.072C166.596 591.525 166.394 592.117 166.196 592.852C166.175 592.963 166.115 593.123 166.068 593.372C166.021 593.62 165.961 593.781 165.935 593.919C165.371 595.958 164.776 598.164 164.163 600.623C163.943 601.154 163.701 601.48 163.437 601.602C163.174 601.725 162.756 601.703 162.156 601.533C161.933 601.434 161.706 601.363 161.455 601.258C161.232 601.159 161.015 601.033 160.862 600.89C160.708 600.746 160.594 600.553 160.519 600.31C160.444 600.067 160.443 599.752 160.516 599.366C161.031 597.746 161.779 595.369 162.754 592.262C163.729 589.156 164.71 586.022 165.7 582.832C165.857 582.318 166.103 581.649 166.415 580.792C166.75 579.968 166.952 579.377 167.054 578.996C167.271 578.321 167.371 577.625 167.409 576.945C167.728 575.89 168.617 575.484 170.047 575.725C170.343 575.752 170.576 575.795 170.687 575.845C170.943 575.922 171.131 576.043 171.222 576.203C171.312 576.363 171.323 576.623 171.285 576.987C171.209 578.031 170.981 579.247 170.581 580.574C170.398 581.226 170.076 582.138 169.649 583.288C169.27 584.504 168.998 585.311 168.817 585.792Z" fill="black"/>
<path d="M191.428 594.446C190.615 595.409 189.886 596.244 189.251 596.897C188.612 597.578 187.919 598.22 187.139 598.846C186.359 599.472 185.486 600.109 184.469 600.719C183.314 601.417 182.195 601.922 181.073 602.284C179.986 602.623 178.626 602.968 177.063 603.275C175.5 603.582 174.307 603.844 173.507 604.094C173.122 604.222 172.704 604.201 172.215 604.08C171.644 603.916 171.098 603.613 170.584 603.144C170.041 602.67 169.654 602.169 169.403 601.578C169.153 600.987 169.101 600.463 169.224 599.971L174.31 583.962C173.746 583.599 173.374 583.014 173.165 582.202C173.041 581.578 173.008 581.114 173.139 580.739C173.275 580.335 173.496 580.119 173.813 580.036C174.159 579.958 174.767 579.929 175.646 579.894C178.65 579.772 181.565 580.119 184.363 580.931C185.075 581.151 185.646 581.315 185.985 581.436C187.31 581.914 188.35 582.31 189.128 582.656C189.906 583.003 190.599 583.476 191.243 584.055C191.911 584.667 192.379 585.384 192.635 586.262C193.305 588.305 193.385 590.122 192.904 591.719C192.675 592.62 192.168 593.555 191.428 594.446ZM189.273 586.689C188.418 586.271 187.461 585.919 186.376 585.601C183.38 584.723 180.512 584.441 177.75 584.723C177.182 585.818 176.64 587.261 176.094 589.047C175.851 589.859 175.506 591.053 175.083 592.661C174.661 594.27 174.306 595.519 174.042 596.442C173.793 597.282 173.482 598.139 173.136 599.018C173.654 599.144 174.31 599.182 175.063 599.18C175.845 599.184 176.706 599.088 177.646 598.893C178.586 598.698 179.541 598.42 180.523 598.003C181.177 597.726 181.773 597.437 182.287 597.105C182.831 596.778 183.345 596.445 183.869 596.058C184.394 595.67 184.918 595.282 185.443 594.894C186.555 594.102 187.543 593.172 188.396 592.159C189.248 591.147 189.824 590.168 190.077 589.3C190.49 588.062 190.234 587.184 189.273 586.689Z" fill="black"/>
<path d="M197.064 607.236C196.496 608.016 195.813 608.603 195.041 609.03C194.268 609.457 193.494 609.569 192.783 609.349C192.153 609.174 191.671 608.854 191.414 608.463C191.132 608.038 191.07 607.568 191.237 606.999C191.334 606.645 191.518 606.308 191.799 605.932C192.738 604.621 193.45 604.039 193.963 604.193C194.079 604.215 194.264 604.192 194.493 604.092C194.723 603.992 194.981 603.898 195.211 603.798C195.441 603.698 195.625 603.676 195.742 603.698C196.453 603.917 196.993 604.248 197.362 604.689C197.726 605.158 197.807 605.688 197.634 606.285C197.485 606.6 197.306 606.91 197.064 607.236Z" fill="black"/>
<path d="M209.055 610.718C208.487 611.498 207.805 612.085 207.032 612.512C206.259 612.939 205.485 613.051 204.774 612.832C204.144 612.656 203.663 612.337 203.405 611.945C203.123 611.52 203.061 611.051 203.228 610.482C203.325 610.128 203.509 609.79 203.79 609.414C204.729 608.103 205.435 607.549 205.954 607.675C206.07 607.697 206.255 607.675 206.484 607.575C206.714 607.475 206.973 607.38 207.202 607.281C207.432 607.181 207.617 607.158 207.733 607.18C208.444 607.4 208.984 607.73 209.353 608.171C209.717 608.64 209.798 609.17 209.625 609.767C209.471 610.11 209.292 610.42 209.055 610.718Z" fill="black"/>
<path d="M221.041 614.228C220.473 615.008 219.79 615.595 219.018 616.022C218.245 616.449 217.471 616.561 216.76 616.342C216.13 616.166 215.648 615.847 215.391 615.455C215.104 615.058 215.047 614.561 215.214 613.991C215.311 613.638 215.494 613.3 215.776 612.924C216.715 611.613 217.426 611.031 217.939 611.185C218.056 611.207 218.241 611.184 218.47 611.085C218.7 610.985 218.958 610.89 219.188 610.79C219.417 610.69 219.602 610.668 219.719 610.69C220.43 610.909 220.97 611.24 221.339 611.681C221.702 612.15 221.783 612.68 221.611 613.277C221.461 613.592 221.307 613.935 221.041 614.228Z" fill="black"/>
<path d="M266.334 614.816C266.733 615.578 266.797 616.362 266.553 617.175C266.407 617.633 266.194 617.965 265.88 618.192C265.567 618.419 265.25 618.503 264.882 618.377C264.824 618.366 264.8 618.333 264.8 618.333L264.776 618.3C264.66 618.278 264.388 618.284 263.96 618.318C263.539 618.954 262.742 619.834 261.567 620.958C260.392 622.081 259.341 623.028 258.337 623.726C257.362 624.43 256.383 624.99 255.402 625.406C254.42 625.822 253.454 626.156 252.578 626.334C251.667 626.535 250.864 626.642 250.072 626.693C249.313 626.722 248.624 626.707 248.003 626.647C247.236 626.561 246.48 626.418 245.739 626.193C244.311 625.782 243.134 625.16 242.24 624.306C241.342 623.479 240.844 622.441 240.708 621.243C240.589 620.276 240.785 618.911 241.292 617.176C242.071 614.633 243.082 612.62 244.324 611.137C245.058 610.274 245.914 609.405 246.91 608.591C247.882 607.744 248.955 607.001 250.057 606.264C251.183 605.561 252.356 604.923 253.583 604.324C254.834 603.758 256.039 603.269 257.219 602.919C259.291 602.307 261.143 602.226 262.741 602.698C263.143 602.802 263.505 602.956 263.862 603.137C264.915 603.621 265.697 604.111 266.264 604.619C266.831 605.126 266.973 605.81 266.709 606.733C266.607 607.115 266.384 607.502 266.092 607.933C265.498 608.852 265.043 609.51 264.78 609.947C264.489 610.378 264.218 610.699 263.949 610.849C263.674 611.026 263.31 611.044 262.855 610.901C262.024 610.516 261.494 610.13 261.25 609.827C261.011 609.496 260.952 609.17 261.054 608.789C261.109 608.656 261.214 608.418 261.363 608.103C261.542 607.793 261.652 607.528 261.718 607.34C261.788 607.125 261.819 606.959 261.811 606.843C261.8 606.583 261.627 606.379 261.196 606.269C260.456 606.044 259.293 606.141 257.768 606.569C256.218 606.965 254.538 607.736 252.673 608.844C251.964 609.255 251.052 609.941 249.938 610.905C248.823 611.868 247.796 612.848 246.885 613.85C245.969 614.879 245.385 615.742 245.129 616.467C244.637 618.119 244.52 619.385 244.777 620.262C245.033 621.14 245.73 621.758 246.844 622.081C249.763 622.887 252.848 622.494 256.053 620.98C256.747 620.653 257.511 620.11 258.37 619.384C259.229 618.659 259.814 618.111 260.077 617.674C259.001 617.472 258.239 617.357 257.769 617.297C257.298 617.237 256.852 617.211 256.41 617.156C255.969 617.102 255.295 617.004 254.369 616.801C253.853 616.504 253.484 616.063 253.297 615.456C253.111 614.848 253.098 614.274 253.26 613.732C253.351 613.406 253.515 613.179 253.696 613.013C254.087 612.858 254.457 612.813 254.811 612.851C255.165 612.889 255.955 613.009 257.187 613.183C258.414 613.385 259.481 613.471 260.438 613.508C262.758 613.658 264.379 613.848 265.294 614.106C265.868 614.414 266.254 614.601 266.334 614.816Z" fill="black"/>
<path d="M286.902 629.695C286.271 630.492 285.289 630.908 283.9 630.933C282.661 630.958 281.504 631.026 280.458 631.145C279.412 631.263 278.419 631.419 277.479 631.615C276.573 631.788 275.287 632.061 273.685 632.418C272.053 632.769 270.456 633.098 268.863 633.4C268.459 633.467 268.071 633.451 267.698 633.352C267.04 633.171 266.568 632.797 266.254 632.223C265.941 631.649 265.891 630.953 266.163 630.146C266.304 629.715 266.501 629.151 266.791 628.405C267.082 627.658 267.418 626.834 267.798 625.933C268.183 625.004 268.519 624.181 268.804 623.462C269.095 622.715 269.312 622.041 269.519 621.422C270.718 617.442 271.789 614.468 272.702 612.494C272.439 612.13 272.406 611.666 272.578 611.069C272.73 610.582 273.022 610.151 273.464 609.719C273.902 609.315 274.44 609.016 275.097 608.882C277.124 608.833 278.63 608.83 279.562 608.834C280.495 608.838 281.388 608.891 282.184 608.983C283.008 609.081 284.245 609.228 285.884 609.479C286.714 609.549 287.33 609.636 287.703 609.735C288.787 610.053 289.183 610.671 288.919 611.594C288.838 611.865 288.649 612.23 288.392 612.639C288.065 613.093 287.786 613.298 287.5 613.215C287.471 613.21 287.36 613.16 287.191 613.1C287.022 613.039 286.881 612.984 286.77 612.935C286.601 612.875 286.363 612.858 286.067 612.831C283.974 612.753 282.352 612.734 281.229 612.78C280.106 612.827 278.574 612.968 276.599 613.226C275.999 613.857 275.526 614.77 275.187 615.936C275.014 616.533 274.886 617.052 274.764 617.544C275.575 617.554 276.513 617.53 277.548 617.467C278.613 617.41 279.799 617.346 281.136 617.283C282.472 617.219 283.682 617.189 284.819 617.231C285.926 617.268 286.93 617.371 287.832 617.54C288.334 617.749 288.515 618.069 288.403 618.506C288.387 618.589 288.332 618.721 288.238 618.904C288.143 619.086 288.088 619.219 288.038 619.324C287.619 620.275 287.034 620.823 286.266 620.907C285.526 620.997 284.33 621.116 282.71 621.241C281.091 621.365 279.807 621.467 278.888 621.552C277.969 621.637 276.976 621.794 275.886 621.989C274.824 622.19 273.839 622.463 272.961 622.813C272.655 623.156 272.312 623.864 271.882 624.87C271.476 625.909 271.119 626.843 270.866 627.711C272.658 627.791 274.903 627.698 277.621 627.493C278.049 627.459 278.847 627.38 280.009 627.284C281.176 627.16 282.217 627.07 283.131 627.013C284.045 626.955 284.978 626.959 285.998 626.979C286.299 626.979 286.595 627.006 286.88 627.088C287.568 627.274 287.781 627.743 287.588 628.451C287.447 628.882 287.223 629.269 286.902 629.695Z" fill="black"/>
<path d="M313.069 619.91C312.563 621.16 311.992 621.796 311.361 621.792C310.817 621.804 309.77 621.607 308.196 621.168C306.623 620.73 305.475 620.428 304.777 620.297C304.055 620.133 303.342 620.084 302.602 620.174C301.959 621.512 301.212 623.403 300.269 625.858C299.361 628.29 298.549 630.684 297.841 633.011C297.067 635.526 296.601 637.527 296.373 639.058C296.119 639.611 295.838 639.987 295.558 640.192C295.279 640.397 294.909 640.442 294.473 640.36C294.018 640.217 293.69 640.041 293.464 639.798C293.239 639.556 293.132 639.164 293.138 638.65C293.756 636.163 294.333 633.897 294.873 631.824C295.413 629.751 295.951 627.85 296.487 626.12C297.297 623.411 298.056 621.294 298.751 619.679C297.656 619.416 296.813 619.258 296.284 619.187C295.755 619.116 295.169 619.035 294.542 619.003C293.921 618.943 293.416 618.906 293.004 618.857C292.52 618.709 292.141 618.323 291.896 617.704C291.656 617.059 291.599 616.562 291.73 616.186C291.876 615.727 292.02 615.439 292.197 615.301C292.374 615.162 292.769 614.979 293.403 614.812C293.947 614.8 294.719 614.859 295.694 614.957C296.669 615.054 297.732 615.168 298.853 615.293C299.973 615.418 301.181 615.559 302.418 615.706C305.838 616.091 308.577 616.577 310.571 617.181C311.486 617.438 312.415 617.785 313.386 618.225C313.553 618.456 313.559 618.743 313.463 619.097C313.442 619.208 313.353 619.363 313.287 619.551C313.222 619.739 313.124 619.777 313.069 619.91Z" fill="black"/>
<path d="M111.973 627.603C111.168 628.681 110.337 629.097 109.48 628.851C108.851 628.675 108.429 628.195 108.215 627.411C108.021 627.003 107.993 626.511 108.073 625.926C108.182 625.345 108.332 624.544 108.554 623.527C108.775 622.51 108.854 621.61 108.819 620.831C106.591 620.355 104.492 619.989 102.517 619.761C100.548 619.505 98.7936 619.547 97.2066 619.821C96.0548 620.663 95.4202 621.316 95.2685 621.803C95.2633 621.83 95.2374 621.968 95.1668 622.184C95.1252 622.405 95.0546 622.621 94.9736 622.892C94.3753 623.351 93.6649 623.447 92.808 623.2C92.2077 623.03 91.7549 622.716 91.4443 622.286C91.1338 621.855 91.0476 621.353 91.22 620.756C91.3114 620.43 91.4952 620.092 91.7611 619.799C92.3978 618.975 92.9794 618.283 93.5454 617.674C94.0772 617.087 95.0514 616.069 96.4681 614.619C97.8557 613.163 98.9535 611.968 99.7564 611.06C101.096 609.538 102.057 608.431 102.633 607.767C103.21 607.103 103.805 606.5 104.395 605.924C104.985 605.349 105.628 604.811 106.294 604.307C106.966 603.776 108.005 603.055 109.352 602.136C109.602 601.925 109.882 601.72 110.127 601.537C110.406 601.333 110.704 601.188 111.021 601.105C111.372 600.999 111.761 601.015 112.216 601.158C112.361 601.185 112.583 601.284 112.888 601.427C113.462 601.735 113.822 602.06 113.969 602.403C114.11 602.772 114.13 603.148 114.091 603.513C114.053 603.877 113.936 604.342 113.847 604.811C113.727 606.734 113.569 608.535 113.427 610.254C113.255 611.966 113.056 613.989 112.829 616.32C112.601 618.652 112.422 620.564 112.287 622.083C112.245 623.591 112.111 625.426 111.973 627.603ZM109.527 616.587C109.549 615.99 109.648 614.979 109.826 613.553C110.003 612.128 110.11 610.918 110.142 609.951C110.173 608.984 110.12 608.144 109.954 607.427C109.555 607.466 109.067 607.66 108.571 608.054C108.047 608.441 107.364 609.028 106.553 609.82C105.713 610.606 105.133 611.127 104.751 611.398C104.045 611.952 103.486 612.362 103.123 612.694C102.764 612.999 102.474 613.259 102.253 613.475C102.066 613.668 101.84 613.912 101.608 614.183C101.377 614.454 101.061 614.853 100.666 615.351C100.695 615.356 102.234 615.502 105.247 615.811C106.164 615.897 107.007 616.056 107.758 616.226C108.567 616.406 109.143 616.543 109.527 616.587Z" fill="black"/>
<path d="M145.727 631.915C145.775 632.297 145.771 632.639 145.695 632.882C145.554 633.313 145.288 633.607 144.874 633.729C144.454 633.879 143.9 633.947 143.229 633.992C142.563 634.01 141.659 634.012 140.489 633.992C139.318 633.972 138.351 633.991 137.564 634.015C136.592 634.061 135.736 634.129 134.997 634.219C134.257 634.309 133.391 634.432 132.432 634.566C131.468 634.728 130.7 634.813 130.214 634.836C129.693 634.881 129.31 634.838 128.966 634.745C128.85 634.723 128.744 634.646 128.609 634.563C127.963 634.156 127.771 633.576 128.014 632.763C128.079 632.575 128.305 632.017 128.748 631.099C129.163 630.176 129.503 629.324 129.736 628.567C130.384 626.4 131.391 623.443 132.763 619.667C133.166 618.484 133.682 616.864 134.304 614.836C134.996 612.591 135.362 611.287 135.44 610.872C135.738 609.927 136.169 609.236 136.728 608.826C137.316 608.421 137.881 608.299 138.505 608.502C139.105 608.672 139.486 608.887 139.643 609.173C139.805 609.433 139.791 609.831 139.634 610.345C139.542 610.671 139.382 611.041 139.178 611.489C138.339 613.391 137.678 614.983 137.186 616.321C136.664 617.654 136.212 618.942 135.793 620.208C135.375 621.473 134.865 623.066 134.263 624.984C133.662 626.902 133.186 628.472 132.817 629.632C133.798 629.702 134.72 629.761 135.59 629.781C136.459 629.802 137.635 629.794 139.048 629.802C140.467 629.783 141.55 629.786 142.298 629.812C143.051 629.811 143.765 629.859 144.444 629.929C144.759 630.017 145.005 630.149 145.193 630.27C145.375 630.419 145.471 630.551 145.532 630.706C145.594 630.861 145.65 631.043 145.637 631.269C145.678 631.534 145.7 631.739 145.727 631.915Z" fill="black"/>
<path d="M170.254 619.962C169.748 621.211 169.177 621.848 168.545 621.844C167.943 621.845 167.211 621.736 166.296 621.478C165.27 621.171 164.236 621.062 163.254 621.164C162.81 622.082 162.286 623.271 161.704 624.763C161.098 626.223 160.496 627.826 159.868 629.568C159.239 631.309 158.69 632.951 158.219 634.493C157.814 635.847 157.54 636.826 157.392 637.456C159.017 637.618 160.495 637.924 161.894 638.33C162.18 638.413 162.659 638.588 163.283 638.792C163.63 639.028 163.747 639.365 163.611 639.769C163.601 639.824 163.377 640.211 163.01 640.886C162.489 641.732 161.592 642.021 160.347 641.759C159.852 641.666 159.115 641.584 158.139 641.487C157.164 641.389 156.393 641.33 155.777 641.243C155.518 641.337 155.018 641.272 154.278 641.047C152.914 640.934 151.884 640.969 151.192 641.125C150.851 641.176 150.497 641.138 150.183 641.05C149.553 640.874 149.058 640.467 148.715 639.887C148.372 639.308 148.302 638.722 148.464 638.181C148.539 637.938 148.639 637.727 148.787 637.583C149.092 637.24 149.575 637.074 150.206 637.078C150.838 637.082 151.314 637.114 151.663 637.18C152.363 637.14 153.232 637.16 154.247 637.208C155.037 634.124 155.844 631.272 156.649 628.591C157.666 625.263 158.582 622.632 159.437 620.647C158.022 620.324 157.028 620.166 156.426 620.167C155.823 620.168 155.318 620.13 154.906 620.081C154.422 619.933 154.043 619.547 153.832 618.907C153.592 618.261 153.535 617.764 153.666 617.388C153.812 616.929 153.957 616.642 154.133 616.503C154.31 616.365 154.706 616.182 155.339 616.015C155.883 616.003 156.33 616.029 156.679 616.095C157.033 616.133 157.707 616.231 158.759 616.4C159.812 616.569 160.723 616.683 161.606 616.792C165.352 617.21 167.81 617.586 168.952 617.915C169.18 617.987 169.746 618.179 170.582 618.536C170.749 618.768 170.771 618.972 170.73 619.193C170.714 619.276 170.659 619.409 170.575 619.536C170.369 619.669 170.309 619.829 170.254 619.962Z" fill="black"/>
<path d="M191.265 625.912C190.69 626.891 189.899 627.257 188.886 627.038C187.321 626.715 185.891 626.475 184.63 626.296C183.369 626.116 181.971 626.025 180.483 626.088C178.972 626.119 177.57 626.371 176.282 626.815C176.138 627.103 175.949 627.468 175.726 627.855C175.502 628.242 175.347 628.585 175.208 628.845C175.098 629.11 174.978 629.431 174.852 629.779C174.7 630.265 174.564 630.669 174.428 631.072C174.297 631.448 174.211 631.747 174.146 631.935C179.902 631.586 184.439 631.638 187.722 632.112C188.151 632.393 188.25 632.984 187.968 633.846C187.719 634.371 187.535 634.709 187.485 634.814C187.435 634.919 187.298 635.007 187.127 635.118C186.96 635.201 186.609 635.307 186.137 635.418C185.445 635.575 184.618 635.648 183.617 635.689C182.616 635.729 181.372 635.782 179.913 635.851C178.455 635.92 177.074 636.061 175.827 636.285C174.581 636.508 173.396 636.886 172.248 637.386C171.755 638.409 171.323 639.586 170.918 640.94C170.625 641.858 170.364 642.925 170.078 644.13C169.639 645.02 168.972 645.524 168.111 645.62C167.834 645.653 167.509 645.621 167.165 645.528C166.425 645.303 166.133 644.933 166.3 644.364C166.43 643.673 166.654 642.8 166.973 641.744C167.551 639.793 168.229 637.946 168.95 636.193C169.581 634.596 170.294 632.727 171.077 630.643C171.831 628.553 172.433 626.95 172.879 625.861C172.266 625.116 172.016 624.526 172.167 624.039C172.248 623.768 172.466 623.409 172.821 622.961C173.063 622.634 173.464 622.423 174 622.295C174.536 622.167 174.969 622.106 175.271 622.105C176.869 622.091 178.283 622.099 179.546 622.107C180.809 622.116 182.095 622.157 183.406 622.232C184.717 622.307 185.988 622.431 187.162 622.595C188.335 622.758 189.377 622.982 190.321 623.246C190.723 623.35 191.033 623.465 191.231 623.531C191.713 623.851 191.823 624.386 191.601 625.088C191.515 625.387 191.405 625.652 191.265 625.912Z" fill="black"/>
<path d="M207.516 648.705C206.914 649.507 205.908 649.89 204.514 649.943C203.275 649.967 202.117 650.036 201.072 650.154C200.026 650.272 199.033 650.429 198.093 650.624C197.187 650.797 195.901 651.07 194.299 651.427C192.667 651.779 191.07 652.108 189.477 652.409C189.073 652.476 188.685 652.461 188.312 652.362C187.654 652.181 187.182 651.806 186.868 651.232C186.555 650.658 186.505 649.963 186.777 649.155C186.918 648.724 187.115 648.16 187.405 647.414C187.696 646.668 188.032 645.844 188.412 644.943C188.797 644.014 189.133 643.19 189.389 642.466C189.68 641.719 189.897 641.045 190.104 640.426C191.303 636.446 192.374 633.472 193.287 631.498C193.024 631.134 192.991 630.67 193.158 630.101C193.31 629.614 193.602 629.183 194.044 628.751C194.481 628.347 195.019 628.047 195.677 627.913C197.703 627.865 199.209 627.862 200.142 627.866C201.075 627.869 201.968 627.923 202.763 628.015C203.588 628.113 204.825 628.259 206.464 628.51C207.294 628.58 207.91 628.668 208.283 628.766C209.367 629.084 209.763 629.702 209.499 630.625C209.418 630.896 209.229 631.261 208.971 631.671C208.645 632.124 208.366 632.329 208.08 632.247C208.051 632.241 207.94 632.192 207.771 632.132C207.601 632.071 207.461 632.016 207.35 631.967C207.181 631.906 206.943 631.89 206.647 631.863C204.554 631.784 202.932 631.766 201.814 631.784C200.691 631.831 199.159 631.972 197.184 632.23C196.584 632.861 196.111 633.774 195.771 634.94C195.599 635.537 195.471 636.056 195.349 636.548C196.16 636.558 197.098 636.534 198.133 636.471C199.198 636.414 200.384 636.35 201.721 636.287C203.057 636.223 204.267 636.193 205.375 636.23C206.482 636.266 207.486 636.369 208.388 636.539C208.89 636.748 209.071 637.068 208.959 637.504C208.943 637.587 208.888 637.72 208.794 637.902C208.699 638.085 208.644 638.217 208.594 638.323C208.204 639.279 207.59 639.822 206.821 639.906C206.082 639.996 204.885 640.114 203.266 640.239C201.647 640.364 200.363 640.466 199.444 640.551C198.525 640.635 197.532 640.792 196.441 640.988C195.38 641.189 194.395 641.461 193.517 641.811C193.211 642.154 192.873 642.834 192.437 643.868C192.031 644.908 191.675 645.842 191.422 646.71C193.219 646.761 195.459 646.696 198.177 646.492C198.605 646.458 199.397 646.406 200.565 646.283C201.732 646.159 202.773 646.068 203.687 646.011C204.601 645.954 205.563 645.963 206.553 645.978C206.855 645.977 207.151 646.004 207.436 646.086C208.124 646.273 208.337 646.742 208.144 647.449C208.06 647.892 207.832 648.306 207.516 648.705Z" fill="black"/>
<path d="M214.984 656.231C214.413 656.867 213.606 657.316 212.621 657.589C211.636 657.862 210.757 657.897 210.016 657.672C209.625 657.512 209.357 657.176 209.223 656.607C209.089 656.038 209.1 655.497 209.257 654.983C209.338 654.712 209.472 654.48 209.664 654.258C210.083 653.794 210.607 653.406 211.237 653.095C211.868 652.784 212.541 652.568 213.217 652.495C213.898 652.394 214.496 652.42 215.009 652.574C215.342 652.722 215.581 653.053 215.696 653.561C215.812 654.069 215.771 654.605 215.609 655.147C215.439 655.573 215.25 655.938 214.984 656.231ZM227.017 634.176C226.342 635.365 225.856 636.189 225.496 636.665C225.164 637.146 224.572 637.893 223.788 638.861C223.004 639.83 222.239 640.859 221.56 641.904C220.719 643.177 220.017 644.189 219.488 644.919C218.96 645.649 218.436 646.352 217.894 646.994C217.381 647.641 216.676 648.51 215.813 649.578C215.65 649.805 215.454 649.883 215.256 649.817C215.111 649.789 214.904 649.607 214.591 649.348C214.313 649.067 214.101 648.913 213.966 648.83C214.511 647.531 214.97 646.53 215.354 645.773C215.737 645.015 216.025 644.44 216.196 644.014C216.251 643.882 216.65 643.041 217.411 641.554C218.143 640.061 218.681 638.96 219.02 638.28C219.742 636.842 220.29 635.687 220.636 634.807C220.982 633.928 221.212 633.342 221.333 633.022C221.754 632.701 222.34 632.467 223.119 632.328C223.898 632.188 224.617 632.209 225.27 632.417C226.267 632.719 226.819 633.309 227.017 634.176Z" fill="black"/>
<path d="M228.94 660.313C228.369 660.949 227.562 661.398 226.577 661.671C225.592 661.944 224.713 661.979 223.972 661.754C223.58 661.594 223.312 661.258 223.179 660.689C223.045 660.12 223.056 659.579 223.213 659.065C223.294 658.794 223.428 658.562 223.62 658.34C224.038 657.876 224.563 657.488 225.193 657.177C225.824 656.867 226.497 656.65 227.173 656.577C227.854 656.476 228.446 656.53 228.965 656.656C229.298 656.804 229.537 657.135 229.652 657.643C229.768 658.151 229.727 658.687 229.565 659.229C229.395 659.655 229.206 660.02 228.94 660.313ZM240.973 638.258C240.303 639.419 239.812 640.271 239.452 640.747C239.091 641.223 238.528 641.975 237.744 642.943C236.96 643.912 236.194 644.941 235.516 645.986C234.675 647.259 233.973 648.271 233.444 649.001C232.916 649.731 232.392 650.434 231.85 651.076C231.337 651.723 230.637 652.564 229.769 653.66C229.605 653.887 229.41 653.965 229.212 653.899C229.072 653.844 228.831 653.684 228.547 653.43C228.269 653.149 228.057 652.995 227.922 652.912C228.467 651.613 228.926 650.612 229.309 649.855C229.693 649.097 229.981 648.522 230.152 648.096C230.207 647.964 230.6 647.151 231.367 645.636C232.099 644.143 232.637 643.042 232.976 642.362C233.698 640.924 234.246 639.769 234.592 638.89C234.938 638.01 235.168 637.424 235.289 637.104C235.71 636.783 236.296 636.549 237.075 636.41C237.854 636.27 238.573 636.291 239.226 636.499C240.223 636.801 240.804 637.396 240.973 638.258Z" fill="black"/>
</svg>
