<svg width="192" height="204" viewBox="0 0 192 204" fill="none" xmlns="http://www.w3.org/2000/svg">
<path d="M130.235 100.062C155.129 95.0056 171.21 70.7264 166.153 45.8329C161.097 20.9394 136.818 4.85833 111.924 9.91478C87.0305 14.9712 70.9494 39.2505 76.0059 64.144C81.0623 89.0375 105.342 105.119 130.235 100.062Z" fill="#231F20" stroke="#231F20" stroke-miterlimit="10"/>
<path d="M73.3835 77.7267C74.8017 81.9471 78.923 92.3152 89.527 100.265C104.641 111.6 121.492 109.459 124.913 108.944C102.048 138.963 79.189 168.974 56.3246 198.993C54.8067 199.703 52.3099 200.639 49.1477 200.721C47.3776 200.768 40.4893 200.679 35.6358 195.127C31.4407 190.328 31.5594 184.639 31.6206 183.304C45.5464 148.113 59.4643 112.916 73.3835 77.7267Z" fill="#808184"/>
<path d="M89.0032 22.0312C95.3632 28.385 103.177 35.2122 112.613 41.7791C132.235 55.4255 151.316 62.6648 165.573 66.6736" stroke="white" stroke-width="5" stroke-miterlimit="10"/>
<path d="M77.6579 39.8186C85.0354 47.2607 94.8546 55.8136 107.409 63.8178C125.708 75.4891 143.057 81.6674 155.857 85.0856C153.973 86.9228 152.088 88.7599 150.202 90.5903C146.963 89.8494 141.792 88.5312 135.65 86.3162C119.599 80.5319 108.33 72.7514 94.9518 63.384C90.1408 60.0191 83.3765 55.084 75.5216 48.6669C76.2328 45.7245 76.9413 42.7689 77.6579 39.8186Z" fill="white" stroke="white" stroke-miterlimit="10" stroke-linejoin="round"/>
</svg>
