<svg width="740" height="458" viewBox="0 0 740 458" fill="none" xmlns="http://www.w3.org/2000/svg">
<path d="M519.085 316.822C519.758 317.101 520.06 317.333 519.851 317.541C519.457 317.889 519.201 317.611 519.085 316.822Z" fill="white"/>
<path d="M567.471 454.789C389.028 456.366 323.965 455.345 308.887 453.49C306.382 453.188 293.857 451.449 277.017 452.307C267.599 452.794 259.922 453.93 254.958 454.789C254.308 454.093 250.736 450.057 250.551 443.4C250.342 436.116 254.378 431.547 254.958 430.92C327.166 425.284 404.152 423.173 485.359 426.189C513.333 427.232 540.704 428.833 567.471 430.92C567.471 438.853 567.471 446.833 567.471 454.789Z" fill="#58595B" stroke="black" stroke-width="4" stroke-miterlimit="10"/>
<path d="M560.42 429.089H257.44C259.063 395.014 259.55 358.458 258.321 319.722C257.37 289.753 255.514 261.176 252.963 234.176C263.169 234.965 278.316 235.986 296.71 236.612C348.853 238.375 387.242 235.614 402.667 234.663C437.808 232.506 489.511 231.439 560.629 236.612C561.394 243.223 562.438 253.568 562.995 266.256C564.665 303.902 559.933 311.789 560.629 352.288C560.93 369.569 561.928 376.783 561.603 398.47C561.441 411.367 560.884 421.991 560.42 429.089Z" fill="#58595B" stroke="black" stroke-width="4" stroke-miterlimit="10"/>
<path d="M545.389 250.205H277.736V406.334H545.389V250.205Z" fill="#D1D3D4" stroke="black" stroke-width="4" stroke-miterlimit="10"/>
<path d="M324.753 276.277C324.753 276.277 349.109 311.047 387.173 274.328" stroke="black" stroke-width="6" stroke-miterlimit="10" stroke-linecap="round" stroke-linejoin="round"/>
<path d="M388.843 291.169L380.492 280.174" stroke="black" stroke-width="6" stroke-miterlimit="10" stroke-linecap="round" stroke-linejoin="round"/>
<path d="M369.521 301.398L364.093 289.336" stroke="black" stroke-width="6" stroke-miterlimit="10" stroke-linecap="round" stroke-linejoin="round"/>
<path d="M340.202 301.398L344.957 290.102" stroke="black" stroke-width="6" stroke-miterlimit="10" stroke-linecap="round" stroke-linejoin="round"/>
<path d="M322.48 291.168L330.993 282.748" stroke="black" stroke-width="6" stroke-miterlimit="10" stroke-linecap="round" stroke-linejoin="round"/>
<path d="M433.146 275.372C433.146 275.372 457.501 310.142 495.565 273.424" stroke="black" stroke-width="6" stroke-miterlimit="10" stroke-linecap="round" stroke-linejoin="round"/>
<path d="M497.236 290.262L488.885 279.268" stroke="black" stroke-width="6" stroke-miterlimit="10" stroke-linecap="round" stroke-linejoin="round"/>
<path d="M477.914 300.493L472.486 288.432" stroke="black" stroke-width="6" stroke-miterlimit="10" stroke-linecap="round" stroke-linejoin="round"/>
<path d="M448.594 300.494L453.35 289.197" stroke="black" stroke-width="6" stroke-miterlimit="10" stroke-linecap="round" stroke-linejoin="round"/>
<path d="M430.896 290.264L439.386 281.844" stroke="black" stroke-width="6" stroke-miterlimit="10" stroke-linecap="round" stroke-linejoin="round"/>
<path d="M408.837 325.892C415.358 325.892 420.644 321.561 420.644 316.219C420.644 310.877 415.358 306.547 408.837 306.547C402.317 306.547 397.031 310.877 397.031 316.219C397.031 321.561 402.317 325.892 408.837 325.892Z" fill="#E187B8" stroke="black" stroke-width="4" stroke-miterlimit="10"/>
<path d="M740 165.517C740 166.584 739.513 167.582 738.515 168.486C737.541 169.391 736.405 169.832 735.152 169.832C734.34 169.832 733.505 169.576 732.577 169.043C731.023 169.321 728.402 169.785 724.737 170.388C721.072 170.991 718.335 171.525 716.503 172.012C714.67 172.499 712.629 173.241 710.426 174.262C708.222 175.283 705.485 176.79 702.214 178.831C700.266 180.061 698.526 180.687 696.995 180.687C695.673 180.687 694.583 180.27 693.725 179.411C692.867 178.553 691.985 177.277 691.104 175.584C690.408 174.285 690.037 172.754 690.037 170.991C690.037 169.646 690.269 168.602 690.733 167.814C691.428 166.723 692.519 165.076 694.003 162.85C695.488 160.623 696.972 158.396 698.48 156.123C699.988 153.85 701.519 151.437 703.096 148.863C704.302 146.938 705.694 144.688 707.294 142.113C708.872 139.538 710.333 137.219 711.655 135.154C712.977 133.113 714.369 131.002 715.83 128.891C717.291 126.757 718.799 124.693 720.307 122.652C719.356 122.652 718.196 122.629 716.874 122.559C715.552 122.513 714.624 122.466 714.114 122.466C711.864 122.466 709.243 122.907 706.25 123.812C704.604 124.322 703.49 124.693 702.91 124.948C702.354 125.203 701.658 125.69 700.846 126.386C700.034 127.105 699.269 127.732 698.573 128.288C697.993 128.938 697.227 129.263 696.3 129.263C695.209 129.263 694.073 128.822 692.89 127.94C691.707 127.059 690.733 125.946 689.944 124.623C689.155 123.301 688.761 122.026 688.761 120.796C688.761 119.428 689.294 118.384 690.361 117.642C693.586 116.273 699.176 114.58 707.109 112.515C713.279 110.984 720.121 110.242 727.683 110.242C728.588 110.242 729.562 110.637 730.583 111.448C731.626 112.237 732.508 113.234 733.227 114.394C734.642 116.853 735.338 118.987 735.338 120.75C735.338 122.257 734.781 123.417 733.668 124.206C730.838 126.108 728.217 128.358 725.804 130.956C723.392 133.554 721.119 136.384 719.008 139.422C716.897 142.484 714.322 146.427 711.284 151.275C710.472 152.528 709.66 153.827 708.802 155.172C707.944 156.494 707.109 157.863 706.297 159.231C705.485 160.623 704.766 161.945 704.14 163.198C703.513 164.45 703.119 165.448 702.98 166.213C709.707 163.221 716.294 161.017 722.742 159.579C723.717 159.347 724.784 159.092 725.943 158.79C727.103 158.489 728.077 158.303 728.889 158.164C729.701 158.048 730.699 158.002 731.928 158.002C733.227 158.002 734.317 158.025 735.198 158.095C736.126 158.141 737.101 159.092 738.144 160.971C739.235 162.78 739.838 164.311 740 165.517Z" fill="#2B2069"/>
<path d="M671.991 206.04C671.991 206.944 671.504 207.803 670.529 208.568C669.555 209.334 668.465 209.728 667.212 209.728C666.424 209.728 665.589 209.496 664.684 209.055C663.153 209.31 660.578 209.682 656.983 210.192C653.388 210.702 650.674 211.166 648.865 211.584C647.055 212.001 645.061 212.627 642.88 213.486C640.7 214.344 638.009 215.643 634.808 217.382C632.883 218.426 631.167 218.96 629.682 218.96C628.383 218.96 627.316 218.589 626.458 217.87C625.6 217.151 624.741 216.06 623.86 214.622C623.164 213.532 622.816 212.233 622.816 210.725C622.816 209.589 623.048 208.684 623.489 208.011C624.161 207.084 625.228 205.692 626.69 203.79C628.151 201.911 629.612 200.009 631.097 198.084C632.581 196.159 634.089 194.117 635.643 191.914C636.826 190.29 638.195 188.365 639.772 186.184C641.326 184.004 642.764 182.032 644.063 180.293C645.362 178.553 646.731 176.767 648.169 174.981C649.607 173.172 651.068 171.409 652.576 169.669C651.625 169.669 650.512 169.646 649.213 169.6C647.914 169.553 647.009 169.53 646.499 169.53C644.272 169.53 641.697 169.901 638.752 170.667C637.128 171.084 636.038 171.409 635.481 171.618C634.924 171.826 634.252 172.244 633.44 172.847C632.651 173.45 631.886 173.984 631.213 174.471C630.656 175.027 629.891 175.283 628.963 175.283C627.896 175.283 626.783 174.911 625.623 174.169C624.463 173.427 623.489 172.476 622.723 171.362C621.958 170.226 621.564 169.159 621.564 168.115C621.564 166.955 622.097 166.051 623.141 165.424C626.319 164.265 631.816 162.827 639.633 161.064C645.687 159.765 652.437 159.115 659.883 159.115C660.764 159.115 661.738 159.463 662.736 160.136C663.733 160.809 664.615 161.644 665.334 162.641C666.725 164.729 667.421 166.538 667.421 168.046C667.421 169.321 666.865 170.295 665.774 170.968C662.991 172.569 660.416 174.494 658.027 176.697C655.638 178.901 653.411 181.313 651.347 183.888C649.259 186.486 646.731 189.826 643.739 193.955C642.95 195.022 642.138 196.135 641.303 197.249C640.468 198.385 639.633 199.522 638.844 200.705C638.056 201.888 637.337 203.001 636.734 204.068C636.107 205.135 635.736 205.993 635.597 206.62C642.208 204.091 648.679 202.213 655.035 200.983C655.986 200.798 657.053 200.566 658.189 200.311C659.326 200.055 660.3 199.893 661.089 199.8C661.877 199.707 662.875 199.661 664.081 199.661C665.357 199.661 666.424 199.684 667.305 199.731C668.21 199.777 669.184 200.589 670.205 202.166C671.248 203.72 671.828 205.019 671.991 206.04Z" fill="#2B2069"/>
<path d="M607.437 241.043C607.437 241.715 607.113 242.342 606.463 242.898C605.814 243.455 605.071 243.757 604.236 243.757C603.703 243.757 603.146 243.594 602.543 243.246C601.499 243.432 599.783 243.71 597.371 244.081C594.958 244.453 593.126 244.8 591.92 245.102C590.713 245.404 589.368 245.867 587.907 246.517C586.445 247.143 584.636 248.117 582.479 249.393C581.18 250.159 580.043 250.553 579.023 250.553C578.141 250.553 577.422 250.275 576.866 249.741C576.286 249.208 575.706 248.419 575.126 247.352C574.662 246.54 574.43 245.589 574.43 244.476C574.43 243.641 574.593 242.968 574.894 242.481C575.358 241.808 576.077 240.764 577.051 239.373C578.025 237.981 579.023 236.589 580.02 235.151C581.018 233.736 582.038 232.205 583.082 230.605C583.871 229.399 584.799 227.984 585.866 226.383C586.909 224.76 587.884 223.321 588.742 222.022C589.623 220.747 590.551 219.425 591.502 218.102C592.476 216.78 593.45 215.458 594.471 214.182C593.845 214.182 593.079 214.159 592.198 214.136C591.316 214.09 590.713 214.09 590.365 214.09C588.881 214.09 587.141 214.368 585.17 214.925C584.079 215.249 583.337 215.481 582.966 215.644C582.595 215.806 582.131 216.108 581.598 216.548C581.064 216.989 580.554 217.383 580.09 217.731C579.719 218.126 579.208 218.334 578.582 218.334C577.863 218.334 577.098 218.056 576.332 217.499C575.544 216.943 574.894 216.247 574.384 215.412C573.873 214.577 573.618 213.788 573.618 213.023C573.618 212.164 573.966 211.515 574.662 211.028C576.796 210.17 580.507 209.103 585.75 207.827C589.832 206.876 594.378 206.389 599.365 206.389C599.968 206.389 600.595 206.644 601.291 207.131C601.986 207.618 602.566 208.244 603.053 208.963C603.981 210.517 604.445 211.84 604.445 212.953C604.445 213.904 604.074 214.623 603.332 215.11C601.453 216.293 599.713 217.708 598.113 219.332C596.512 220.955 595.005 222.742 593.613 224.644C592.221 226.546 590.505 229.028 588.487 232.066C587.953 232.855 587.396 233.667 586.84 234.502C586.283 235.337 585.726 236.195 585.193 237.053C584.659 237.911 584.172 238.746 583.755 239.535C583.337 240.324 583.082 240.95 582.989 241.414C587.443 239.535 591.804 238.167 596.072 237.262C596.721 237.123 597.417 236.96 598.182 236.775C598.948 236.589 599.597 236.473 600.131 236.381C600.664 236.311 601.337 236.265 602.149 236.265C603.007 236.265 603.726 236.288 604.329 236.311C604.932 236.334 605.582 236.937 606.278 238.12C606.95 239.303 607.345 240.277 607.437 241.043Z" fill="#2B2069"/>
<path d="M22.028 105.951C9.34004 109.013 5.55916 124.739 8.505 135.989C11.6364 147.842 21.9816 155.01 33.2547 158.187C40.4685 160.229 48.239 161.504 55.6152 159.556C59.9063 158.419 77.1406 150.486 77.5118 145.476C75.9809 165.401 84.6096 188.295 107.573 189.107C116.364 189.432 124.668 185.001 131.859 180.386C134.457 178.715 146.217 172.082 146.495 168.277C157.397 189.385 183.562 187.367 198.43 175.7C209.541 166.979 212 152.945 210.005 138.842L215.641 145.871C230.579 163.383 267.019 157.26 273.839 134.992C275.486 129.564 275.532 124.206 274.21 118.709C274.048 118.082 270.754 107.83 269.942 107.714C270.777 107.273 283.419 100.662 287.153 88.6471C292.674 70.8562 281.03 54.3873 263.378 50.4441C260.502 49.8178 243.29 52.2765 239.324 53.877C239.208 54.6657 238.953 54.9672 238.559 54.5961C238.327 54.3873 238.628 54.1554 239.324 53.877C240.043 48.8204 234.731 22.8646 220.652 14.7925C195.74 0.480845 170.016 5.30552 150.044 27.4109C139.722 2.2669 105.3 -6.75617 82.3596 5.28233C69.115 12.241 64.7078 22.3311 63.3857 36.8747C43.3911 31.7948 20.1724 33.2098 7.57717 51.9054C-0.170142 63.4104 -3.11598 78.3019 4.21382 90.7811C7.9715 97.2295 13.724 106.044 22.028 105.951Z" fill="#AABCE1"/>
<path d="M246.236 218.033C247.373 222.602 253.218 225.061 259.272 223.53C265.326 221.999 269.316 217.035 268.179 212.466C267.019 207.896 261.197 205.438 255.143 206.969C249.089 208.523 245.1 213.486 246.236 218.033Z" fill="#AABCE1"/>
<path d="M209.981 189.734C212.139 198.363 223.783 202.839 235.984 199.754C248.185 196.646 256.326 187.136 254.169 178.507C252.012 169.879 240.368 165.402 228.167 168.487C215.989 171.595 207.824 181.105 209.981 189.734Z" fill="#AABCE1"/>
<path d="M40.3525 105.233C40.5149 105.071 40.6773 104.793 40.8396 104.445C41.0252 104.027 41.234 103.818 41.4659 103.818C41.7906 103.818 41.9994 104.12 42.069 104.7L42.7185 110.151L42.7881 110.8C42.7881 111.148 42.6257 111.334 42.2778 111.334C42.0226 111.334 41.8602 111.264 41.7443 111.148C41.6283 111.032 41.4195 110.615 41.118 109.919C40.5845 108.736 39.703 107.669 38.4969 106.718C37.2675 105.767 36.0382 105.303 34.8088 105.303C33.6026 105.303 32.6052 105.674 31.8166 106.416C31.0279 107.159 30.6104 108.086 30.6104 109.2C30.6104 110.081 30.9815 110.893 31.7238 111.612C32.466 112.331 33.881 113.004 35.9918 113.653C39.3087 114.674 41.5355 115.903 42.7185 117.388C43.8782 118.872 44.4581 120.519 44.4581 122.328C44.4581 124.184 44.0406 125.738 43.1824 127.014C42.3241 128.266 41.3035 129.264 40.1206 129.983C38.9376 130.702 37.4067 131.073 35.5742 131.073C34.5304 131.073 33.4402 130.911 32.3037 130.586C31.1903 130.261 30.0305 129.774 28.8243 129.125C28.5692 129.426 28.3604 129.821 28.1981 130.308C27.9893 130.841 27.7573 131.12 27.4558 131.12C27.1543 131.12 26.9687 130.772 26.8991 130.053L26.3656 122.839C26.3424 122.514 26.3192 122.328 26.3192 122.236C26.3192 121.841 26.5048 121.656 26.8759 121.656C27.1543 121.656 27.4094 121.98 27.6646 122.653C28.4068 124.648 29.4506 126.295 30.7496 127.617C32.0253 128.939 33.533 129.612 35.2495 129.612C36.7108 129.612 37.8938 129.148 38.7752 128.22C39.6799 127.292 40.1206 126.225 40.1206 125.065C40.1206 123.883 39.703 122.885 38.8912 122.073C38.0562 121.261 36.5716 120.496 34.4377 119.754C32.3501 119.035 30.796 118.339 29.7754 117.666C28.7547 116.993 27.9429 116.089 27.3398 114.929C26.7367 113.769 26.412 112.586 26.412 111.403C26.412 109.316 27.1543 107.553 28.662 106.092C30.1697 104.63 32.2109 103.911 34.7856 103.911C36.1773 103.911 38.033 104.352 40.3525 105.233Z" fill="white"/>
<path d="M53.4811 103.469C53.4347 104.791 53.4116 105.927 53.4116 106.902L53.4347 112.213C53.4347 114.487 53.4579 115.902 53.4811 116.412C54.2002 115.345 55.012 114.533 55.9167 114C56.8213 113.466 57.7955 113.188 58.8625 113.188C59.7207 113.188 60.5558 113.396 61.3212 113.837C62.1099 114.278 62.713 114.997 63.1305 115.994C63.548 116.992 63.78 118.755 63.78 121.237L63.7336 127.499C63.7336 128.868 64.2439 129.61 65.2413 129.703C65.6356 129.749 65.8444 129.912 65.8444 130.236C65.8444 130.631 65.6356 130.816 65.2181 130.816C65.1021 130.816 64.9397 130.793 64.7078 130.77C63.8264 130.654 62.5506 130.608 60.8805 130.608C60.6022 130.608 60.0919 130.654 59.3496 130.724C58.8393 130.77 58.3754 130.793 58.0043 130.793C57.494 130.793 57.2388 130.608 57.2388 130.26C57.2388 129.958 57.5172 129.749 58.0971 129.657C58.6537 129.564 59.0249 129.193 59.1872 128.52C59.3496 127.847 59.4192 125.852 59.4192 122.489C59.4192 119.427 59.28 117.409 58.9785 116.481C58.6769 115.53 58.0971 115.067 57.2156 115.067C56.4734 115.067 55.7543 115.461 55.0352 116.273C54.3162 117.085 53.8523 118.198 53.6203 119.613C53.3884 121.051 53.2956 122.814 53.2956 124.901C53.2956 125.968 53.342 126.919 53.4347 127.708C53.5275 128.52 53.6667 129.007 53.8523 129.216C54.0378 129.425 54.3394 129.541 54.7801 129.61C55.244 129.657 55.476 129.865 55.476 130.236C55.476 130.584 55.2208 130.747 54.6873 130.747C54.293 130.747 53.7131 130.7 52.9708 130.631C52.3446 130.561 51.8111 130.538 51.3239 130.538C50.3497 130.538 49.4451 130.584 48.6101 130.7C48.1925 130.747 47.6359 130.77 46.9632 130.77C46.6153 130.77 46.4297 130.584 46.4297 130.213C46.4297 129.912 46.6848 129.726 47.1951 129.633C47.8214 129.564 48.2621 129.262 48.4941 128.798C48.726 128.311 48.8884 126.572 48.9812 123.556C49.074 120.541 49.1204 115.948 49.1204 109.755C49.1204 107.853 48.9812 106.623 48.7029 106.067C48.4245 105.51 47.9838 105.116 47.3343 104.884C46.708 104.675 46.4065 104.42 46.4065 104.141C46.4065 103.793 46.6616 103.608 47.1951 103.608C49.0276 103.631 51.1384 103.562 53.4811 103.469Z" fill="white"/>
<path d="M73.638 113.512C73.7076 114.88 73.7308 116.736 73.7308 119.102C73.7308 122.674 73.754 124.97 73.8236 125.968C73.8932 126.965 74.1252 127.731 74.5659 128.218C74.9834 128.728 75.4705 128.983 76.0272 128.983C76.6767 128.983 77.3261 128.728 77.9756 128.218C78.6251 127.707 79.1122 127.035 79.4369 126.2C79.7617 125.365 79.9008 123.996 79.9008 122.094L79.9472 117.687C79.9472 116.527 79.9008 115.762 79.7617 115.391C79.6457 115.019 79.2514 114.811 78.5787 114.787C77.8364 114.741 77.4653 114.532 77.4653 114.161C77.4653 113.929 77.5581 113.79 77.7437 113.744C77.9292 113.674 78.3931 113.651 79.1586 113.651C80.8751 113.651 82.4755 113.605 83.9601 113.512C84.0065 114.022 84.0296 116.852 84.0296 122.001C84.0296 126.13 84.076 128.403 84.1456 128.774C84.2152 129.146 84.6095 129.377 85.3518 129.447C85.7925 129.493 86.0013 129.702 86.0013 130.027C86.0013 130.421 85.7461 130.607 85.259 130.607C85.1662 130.607 85.0039 130.607 84.7951 130.584C84.4472 130.56 84.0528 130.537 83.5657 130.537C81.9189 130.537 81.0142 130.537 80.8519 130.56C80.6431 130.584 80.4807 130.584 80.3416 130.584C80.1096 130.584 79.9704 130.537 79.9008 130.444C79.8545 130.352 79.8081 130.097 79.8081 129.679C79.8081 128.983 79.8545 128.287 79.9472 127.591C79.089 128.705 78.2076 129.54 77.2565 130.097C76.3055 130.653 75.3313 130.932 74.2875 130.932C71.1329 130.932 69.5556 129.03 69.5556 125.249V119.102C69.5556 116.991 69.486 115.738 69.3469 115.367C69.2077 114.996 68.8366 114.764 68.2335 114.671C67.7 114.602 67.4216 114.416 67.4216 114.161C67.4216 113.813 67.6536 113.628 68.1407 113.628C71.4345 113.628 73.2669 113.581 73.638 113.512Z" fill="white"/>
<path d="M95.4883 113.444C96.2305 113.397 97.3903 113.374 98.9444 113.374C99.6403 113.374 100.22 113.444 100.684 113.583C100.499 114.58 100.336 115.114 100.197 115.184C100.058 115.253 98.4805 115.369 95.4883 115.555L95.2795 124.323C95.2795 125.575 95.3491 126.48 95.4651 127.06C95.5811 127.64 95.8594 128.127 96.2769 128.521C96.6945 128.915 97.2511 129.124 97.9006 129.124C98.4573 129.124 99.2692 128.799 100.336 128.15C100.499 128.057 100.638 128.011 100.754 128.011C100.986 128.011 101.102 128.15 101.102 128.405C101.102 128.799 100.591 129.31 99.5939 129.982C98.5965 130.655 97.4135 130.98 96.0682 130.98C94.4677 130.98 93.2151 130.562 92.3105 129.727C91.4059 128.892 90.942 127.129 90.942 124.439C90.942 121.47 90.9883 118.501 91.0811 115.555C89.8518 115.555 88.9935 115.531 88.4832 115.462C87.9729 115.392 87.7178 115.207 87.7178 114.882C87.7178 114.627 88.0193 114.395 88.5992 114.256C89.7358 113.977 90.7796 113.467 91.6842 112.748C92.5888 112.029 93.3775 110.869 94.0038 109.269C94.2589 108.619 94.4445 108.225 94.5373 108.086C94.63 107.947 94.7692 107.877 94.9316 107.877C95.2795 107.877 95.4651 108.202 95.4651 108.828V113.444H95.4883Z" fill="white"/>
<path d="M110.125 113.444C110.867 113.397 112.027 113.374 113.581 113.374C114.277 113.374 114.857 113.444 115.321 113.583C115.135 114.58 114.973 115.114 114.833 115.184C114.694 115.253 113.117 115.369 110.125 115.555L109.916 124.323C109.916 125.575 109.986 126.48 110.102 127.06C110.218 127.64 110.496 128.127 110.913 128.521C111.331 128.915 111.888 129.124 112.537 129.124C113.094 129.124 113.906 128.799 114.973 128.15C115.135 128.057 115.274 128.011 115.39 128.011C115.622 128.011 115.738 128.15 115.738 128.405C115.738 128.799 115.228 129.31 114.23 129.982C113.233 130.655 112.05 130.98 110.705 130.98C109.104 130.98 107.852 130.562 106.947 129.727C106.042 128.892 105.578 127.129 105.578 124.439C105.578 121.47 105.625 118.501 105.718 115.555C104.488 115.555 103.63 115.531 103.12 115.462C102.609 115.392 102.354 115.207 102.354 114.882C102.354 114.627 102.656 114.395 103.236 114.256C104.372 113.977 105.416 113.467 106.321 112.748C107.225 112.029 108.014 110.869 108.64 109.269C108.895 108.619 109.081 108.225 109.174 108.086C109.267 107.947 109.406 107.877 109.568 107.877C109.916 107.877 110.102 108.202 110.102 108.828V113.444H110.125Z" fill="white"/>
<path d="M124.274 113.117C124.32 114.972 124.344 118.289 124.344 123.044L124.297 127.312C124.297 128.171 124.436 128.75 124.692 129.052C124.947 129.354 125.387 129.539 125.99 129.632C126.686 129.725 127.034 129.933 127.034 130.258C127.034 130.606 126.756 130.792 126.222 130.792C125.967 130.792 125.503 130.768 124.877 130.722C123.509 130.629 122.163 130.583 120.841 130.583C120.192 130.583 119.519 130.629 118.846 130.699C118.429 130.768 118.15 130.792 118.011 130.792C117.478 130.792 117.199 130.606 117.199 130.258C117.199 129.91 117.547 129.701 118.266 129.632C119.217 129.539 119.751 129.191 119.867 128.611C119.983 128.031 120.029 126.825 120.029 125.016C120.029 122.673 120.006 120.539 119.936 118.591C119.867 116.642 119.751 115.506 119.565 115.251C119.38 114.972 118.893 114.787 118.127 114.694C117.524 114.624 117.223 114.439 117.223 114.114C117.223 113.789 117.524 113.604 118.15 113.557L118.545 113.511L124.274 113.117ZM124.019 106.39C124.019 107.179 123.764 107.851 123.23 108.408C122.697 108.965 122.07 109.243 121.351 109.243C120.609 109.243 119.983 108.965 119.473 108.408C118.962 107.851 118.684 107.179 118.684 106.39C118.684 105.601 118.939 104.905 119.473 104.349C120.006 103.792 120.609 103.514 121.351 103.514C122.07 103.514 122.697 103.792 123.23 104.349C123.764 104.905 124.019 105.601 124.019 106.39Z" fill="white"/>
<path d="M135.385 116.992C136.22 115.716 137.124 114.765 138.122 114.139C139.096 113.513 140.163 113.188 141.276 113.188C142.204 113.188 143.062 113.443 143.851 113.953C144.64 114.464 145.15 115.09 145.428 115.809C145.707 116.528 145.846 117.549 145.846 118.848L145.684 126.781C145.684 127.871 145.776 128.59 145.962 128.938C146.147 129.286 146.542 129.518 147.122 129.634C147.609 129.726 147.864 129.935 147.864 130.26C147.864 130.608 147.632 130.77 147.145 130.77C146.727 130.77 145.846 130.724 144.454 130.608C143.967 130.585 143.573 130.561 143.294 130.561C143.016 130.561 142.204 130.631 140.859 130.77H139.954C139.444 130.77 139.189 130.585 139.189 130.237C139.189 129.935 139.421 129.75 139.885 129.657C140.302 129.564 140.627 129.402 140.882 129.193C141.137 128.984 141.3 127.94 141.369 126.062C141.439 124.183 141.485 122.327 141.485 120.495C141.485 118.453 141.323 117.038 141.021 116.296C140.72 115.531 140.14 115.16 139.282 115.16C138.238 115.16 137.264 115.995 136.359 117.642C135.454 119.288 135.014 121.817 135.014 125.25C135.014 126.572 135.083 127.546 135.199 128.126C135.315 128.729 135.477 129.1 135.663 129.239C135.849 129.402 136.22 129.518 136.8 129.634C137.148 129.703 137.31 129.889 137.31 130.214C137.31 130.585 137.055 130.77 136.544 130.77C136.289 130.77 136.034 130.77 135.733 130.724C134.55 130.608 133.9 130.561 133.807 130.561C132.021 130.561 130.56 130.631 129.447 130.77C129.261 130.793 129.122 130.817 129.006 130.817C128.542 130.817 128.31 130.631 128.31 130.237C128.31 129.912 128.519 129.703 128.913 129.657C129.539 129.587 129.98 129.402 130.189 129.1C130.421 128.799 130.583 127.894 130.676 126.363C130.792 124.832 130.838 123 130.838 120.866C130.838 118.152 130.746 116.482 130.56 115.832C130.374 115.183 129.934 114.719 129.238 114.417C128.728 114.209 128.472 114 128.472 113.791C128.472 113.466 128.844 113.304 129.563 113.304C131.604 113.304 133.274 113.211 134.55 113.049C135.037 114.255 135.292 115.554 135.385 116.992Z" fill="white"/>
<path d="M163.127 114.949C164.588 113.581 165.864 112.885 166.931 112.885C167.65 112.885 168.253 113.117 168.717 113.557C169.181 113.998 169.413 114.532 169.413 115.112C169.413 115.599 169.25 116.039 168.926 116.457C168.601 116.851 168.16 117.06 167.603 117.06C166.815 117.06 166.258 116.619 165.91 115.715C165.678 115.112 165.446 114.81 165.214 114.81C164.959 114.81 164.472 115.135 163.753 115.761C164.402 116.828 164.727 117.965 164.727 119.171C164.727 120.423 164.402 121.56 163.73 122.604C163.057 123.648 162.268 124.39 161.317 124.83C160.366 125.271 159.021 125.573 157.281 125.735C155.797 125.874 154.869 126.129 154.567 126.477C154.243 126.825 154.057 127.243 154.057 127.66C154.057 128.194 154.405 128.542 155.078 128.704C155.75 128.867 157.583 128.982 160.622 129.075C165.261 129.238 167.58 130.885 167.58 133.993C167.58 136.104 166.722 137.866 164.982 139.281C163.243 140.673 160.622 141.369 157.119 141.369C154.475 141.369 152.573 140.951 151.39 140.116C150.207 139.281 149.627 138.307 149.627 137.194C149.627 136.011 150.114 135.013 151.065 134.201C152.016 133.39 153.454 132.74 155.379 132.276C153.918 132.114 152.828 131.766 152.109 131.256C151.39 130.745 151.019 130.026 151.019 129.122C151.019 128.171 151.366 127.359 152.039 126.709C152.712 126.06 153.732 125.573 155.078 125.225C153.663 124.761 152.619 124.088 151.9 123.184C151.181 122.302 150.833 121.189 150.833 119.867C150.833 117.941 151.552 116.318 152.99 115.019C154.428 113.72 156.191 113.047 158.279 113.047C159.276 113.047 160.181 113.21 160.993 113.511C161.805 113.859 162.5 114.323 163.127 114.949ZM153.315 136.707C153.315 137.611 153.732 138.4 154.567 139.073C155.403 139.745 156.586 140.093 158.093 140.093C159.926 140.093 161.457 139.652 162.686 138.748C163.892 137.843 164.518 136.776 164.518 135.547C164.518 134.549 164.031 133.807 163.057 133.343C162.083 132.879 160.83 132.624 159.299 132.624C157.49 132.624 156.029 133.019 154.962 133.784C153.848 134.573 153.315 135.524 153.315 136.707ZM155.31 119.101C155.31 120.818 155.588 122.14 156.122 123.068C156.655 123.995 157.305 124.483 158.047 124.483C158.812 124.483 159.392 124.088 159.763 123.276C160.134 122.465 160.343 121.258 160.343 119.658C160.343 117.965 160.111 116.619 159.647 115.645C159.183 114.671 158.58 114.184 157.861 114.184C157.119 114.184 156.516 114.624 156.029 115.506C155.542 116.387 155.31 117.593 155.31 119.101Z" fill="white"/>
<path d="M193.095 115.02C193.095 111.193 193.072 108.642 193.049 107.343C193.002 106.067 192.91 105.301 192.747 105.093C192.585 104.884 192.144 104.698 191.425 104.559C190.938 104.49 190.706 104.304 190.706 104.002C190.706 103.771 190.799 103.631 190.961 103.585C191.124 103.515 191.657 103.492 192.562 103.492H197.456L197.41 117.618L197.317 126.386C197.317 127.732 197.433 128.59 197.642 128.961C197.85 129.309 198.361 129.541 199.126 129.657C199.59 129.703 199.822 129.889 199.822 130.213C199.822 130.561 199.59 130.724 199.103 130.724H193.095V128.01C192.562 129.03 191.912 129.796 191.147 130.306C190.381 130.817 189.5 131.072 188.479 131.072C186.6 131.072 184.93 130.283 183.515 128.706C182.101 127.128 181.381 125.087 181.381 122.605C181.381 119.868 182.193 117.641 183.817 115.879C185.441 114.116 187.25 113.234 189.268 113.234C190.01 113.234 190.706 113.373 191.356 113.675C191.982 113.977 192.562 114.417 193.095 115.02ZM186.369 122.002C186.369 124.531 186.67 126.386 187.296 127.546C187.923 128.706 188.711 129.309 189.685 129.309C190.613 129.309 191.402 128.752 192.075 127.639C192.724 126.525 193.072 124.507 193.072 121.562C193.072 119.172 192.794 117.386 192.237 116.203C191.68 115.02 190.845 114.417 189.709 114.417C188.595 114.417 187.76 115.044 187.204 116.319C186.647 117.595 186.369 119.474 186.369 122.002Z" fill="white"/>
<path d="M219.747 121.607C219.747 124.043 218.912 126.223 217.219 128.102C215.525 130.004 213.368 130.955 210.77 130.955C208.381 130.955 206.363 130.166 204.739 128.566C203.116 126.965 202.304 124.855 202.304 122.21C202.304 119.52 203.162 117.339 204.879 115.669C206.595 113.999 208.706 113.164 211.165 113.164C213.67 113.164 215.734 113.953 217.335 115.53C218.935 117.107 219.747 119.125 219.747 121.607ZM214.621 122.976C214.621 120.795 214.296 118.824 213.6 117.061C212.927 115.298 211.953 114.417 210.701 114.417C209.587 114.417 208.729 115.02 208.126 116.249C207.523 117.478 207.221 119.195 207.221 121.422C207.221 123.834 207.569 125.829 208.242 127.36C208.938 128.914 209.866 129.679 211.072 129.679C212.255 129.679 213.136 129.053 213.716 127.824C214.319 126.617 214.621 124.994 214.621 122.976Z" fill="white"/>
<path d="M240.971 124.808C241.435 123.695 242.038 121.978 242.78 119.589C243.546 117.223 243.917 115.924 243.917 115.715C243.917 115.182 243.546 114.834 242.757 114.741C242.177 114.648 241.875 114.416 241.875 114.068C241.875 113.697 242.107 113.512 242.571 113.512C242.757 113.512 242.989 113.535 243.267 113.558C243.777 113.628 244.241 113.674 244.589 113.674C244.96 113.674 245.471 113.651 246.074 113.581C246.515 113.535 246.747 113.512 246.816 113.512C247.234 113.512 247.419 113.72 247.419 114.115C247.419 114.37 247.21 114.556 246.793 114.695C246.329 114.834 245.935 115.112 245.587 115.507C245.239 115.901 244.868 116.782 244.473 118.128L240.692 129.169C240.321 130.421 239.95 131.071 239.602 131.071C239.324 131.071 239.069 130.746 238.814 130.097L234.94 121.004L234.522 119.937L231.901 126.78C230.927 129.262 230.37 130.584 230.231 130.769C230.092 130.955 229.953 131.048 229.837 131.048C229.582 131.048 229.303 130.723 229.025 130.05C228.561 128.914 228.004 127.638 227.355 126.176L223.273 117.223C222.762 116.133 222.391 115.437 222.159 115.182C221.927 114.927 221.603 114.741 221.208 114.671C220.744 114.579 220.512 114.37 220.512 114.045C220.512 113.697 220.767 113.512 221.278 113.512C221.579 113.512 222.136 113.558 222.948 113.628C223.551 113.697 224.108 113.72 224.641 113.72C225.291 113.72 226.242 113.674 227.494 113.558C227.842 113.535 228.144 113.512 228.352 113.512C228.909 113.512 229.187 113.72 229.187 114.115C229.187 114.44 228.909 114.648 228.376 114.695C227.726 114.764 227.401 115.066 227.401 115.599C227.401 116.086 228.724 119.264 231.345 125.156C232.806 121.491 233.525 119.195 233.525 118.313C233.525 117.641 233.339 116.921 232.992 116.179C232.644 115.414 232.156 114.95 231.53 114.741C231.113 114.602 230.927 114.393 230.927 114.092C230.927 113.744 231.159 113.558 231.623 113.558C231.762 113.558 232.017 113.581 232.388 113.605C233.409 113.697 234.522 113.744 235.729 113.744C236.216 113.744 236.912 113.697 237.77 113.605C238.118 113.581 238.396 113.558 238.605 113.558C239.046 113.558 239.254 113.744 239.254 114.115C239.254 114.44 239.022 114.625 238.582 114.718C237.839 114.834 237.468 115.159 237.468 115.669C237.468 116.11 237.607 116.666 237.863 117.269C238.883 119.751 239.927 122.28 240.971 124.808Z" fill="white"/>
<path d="M255.12 116.992C255.955 115.716 256.86 114.765 257.857 114.139C258.831 113.513 259.898 113.188 261.012 113.188C261.94 113.188 262.798 113.443 263.586 113.953C264.375 114.464 264.885 115.09 265.164 115.809C265.442 116.528 265.581 117.549 265.581 118.848L265.419 126.781C265.419 127.871 265.512 128.59 265.697 128.938C265.883 129.286 266.277 129.518 266.857 129.634C267.344 129.726 267.599 129.935 267.599 130.26C267.599 130.608 267.367 130.77 266.88 130.77C266.463 130.77 265.581 130.724 264.19 130.608C263.702 130.585 263.308 130.561 263.03 130.561C262.751 130.561 261.94 130.631 260.594 130.77H259.69C259.179 130.77 258.924 130.585 258.924 130.237C258.924 129.935 259.156 129.75 259.62 129.657C260.038 129.564 260.362 129.402 260.617 129.193C260.873 128.984 261.035 127.94 261.105 126.062C261.174 124.183 261.22 122.327 261.22 120.495C261.22 118.453 261.058 117.038 260.757 116.296C260.455 115.531 259.875 115.16 259.017 115.16C257.973 115.16 256.999 115.995 256.094 117.642C255.19 119.288 254.749 121.817 254.749 125.25C254.749 126.572 254.819 127.546 254.934 128.126C255.05 128.729 255.213 129.1 255.398 129.239C255.584 129.402 255.955 129.518 256.535 129.634C256.883 129.703 257.045 129.889 257.045 130.214C257.045 130.585 256.79 130.77 256.28 130.77C256.025 130.77 255.77 130.77 255.468 130.724C254.285 130.608 253.636 130.561 253.543 130.561C251.757 130.561 250.295 130.631 249.182 130.77C248.996 130.793 248.857 130.817 248.741 130.817C248.277 130.817 248.045 130.631 248.045 130.237C248.045 129.912 248.254 129.703 248.648 129.657C249.275 129.587 249.715 129.402 249.924 129.1C250.156 128.799 250.319 127.894 250.411 126.363C250.527 124.832 250.574 123 250.574 120.866C250.574 118.152 250.481 116.482 250.295 115.832C250.11 115.183 249.669 114.719 248.973 114.417C248.463 114.209 248.208 114 248.208 113.791C248.208 113.466 248.579 113.304 249.298 113.304C251.339 113.304 253.009 113.211 254.285 113.049C254.772 114.255 255.05 115.554 255.12 116.992Z" fill="white"/>
<path d="M144.037 99.3649C162.868 99.3649 178.134 84.0989 178.134 65.2674C178.134 46.4359 162.868 31.1699 144.037 31.1699C125.205 31.1699 109.939 46.4359 109.939 65.2674C109.939 84.0989 125.205 99.3649 144.037 99.3649Z" stroke="white" stroke-width="0.1" stroke-miterlimit="10"/>
<path d="M114.694 52.9252C117.141 52.9252 119.124 50.9416 119.124 48.4948C119.124 46.048 117.141 44.0645 114.694 44.0645C112.247 44.0645 110.264 46.048 110.264 48.4948C110.264 50.9416 112.247 52.9252 114.694 52.9252Z" fill="white"/>
<path d="M114.23 84.0091C116.677 84.0091 118.661 82.0256 118.661 79.5788C118.661 77.132 116.677 75.1484 114.23 75.1484C111.784 75.1484 109.8 77.132 109.8 79.5788C109.8 82.0256 111.784 84.0091 114.23 84.0091Z" fill="white"/>
<path d="M109.8 74.1498C112.247 74.1498 114.23 72.1662 114.23 69.7194C114.23 67.2726 112.247 65.2891 109.8 65.2891C107.353 65.2891 105.37 67.2726 105.37 69.7194C105.37 72.1662 107.353 74.1498 109.8 74.1498Z" fill="white"/>
<path d="M110.264 62.8763C112.711 62.8763 114.694 60.8928 114.694 58.446C114.694 55.9992 112.711 54.0156 110.264 54.0156C107.817 54.0156 105.833 55.9992 105.833 58.446C105.833 60.8928 107.817 62.8763 110.264 62.8763Z" fill="white"/>
<path d="M122.047 44.0423C124.494 44.0423 126.478 42.0588 126.478 39.612C126.478 37.1652 124.494 35.1816 122.047 35.1816C119.6 35.1816 117.617 37.1652 117.617 39.612C117.617 42.0588 119.6 44.0423 122.047 44.0423Z" fill="white"/>
</svg>
