<svg width="298" height="606" viewBox="0 0 298 606" fill="none" xmlns="http://www.w3.org/2000/svg">
<path d="M243.401 546.823C272.492 546.877 296.119 523.339 296.174 494.248C296.229 465.156 272.69 441.529 243.599 441.474C214.508 441.419 190.88 464.958 190.825 494.049C190.771 523.141 214.309 546.768 243.401 546.823Z" fill="url(#paint0_linear)"/>
<path d="M204.493 458.793C206.475 456.901 208.457 455.05 210.439 453.158C211.179 454.313 212.165 456.046 212.943 458.273C213.804 460.83 214.621 464.747 213.411 472.494C212.243 479.869 210.8 480.526 209.467 487.53C208.802 490.95 207.886 495.812 208.412 500.923C208.655 503.314 210.321 515.93 220.942 522.751C231.769 529.695 245.335 526.382 253.3 521.08C261.347 515.737 264.659 507.789 265.57 505.565C268.842 497.451 268.984 487.519 269.066 487.519L269.023 488.384C269.106 488.384 267.936 474.74 274.628 467.21C277.808 463.588 282.097 462.195 284.901 461.541C286.381 463.728 287.86 465.915 289.299 468.144C287.485 468.347 283.321 469.039 280.635 472.373C279.561 473.69 278.982 475.131 278.235 477.85C276.823 483.412 276.732 487.574 276.562 490.294C276.562 490.294 276.341 498.702 272.49 507.886C266.859 521.353 253.447 530.437 253.447 530.437C250.477 531.874 242.803 535.61 234.355 535.347C228.131 535.129 223.561 532.812 220.719 531.405C217.672 529.875 209.231 525.572 204.591 516.208C199.459 505.853 201.664 494.934 202.787 489.496C203.91 483.975 204.864 480.515 204.864 480.515C206.815 473.429 208.138 471.371 207.898 467.62C207.778 465.559 207.124 462.466 204.493 458.793Z" fill="white"/>
<path d="M280.621 185.988C287.718 94.7816 233.645 16.1888 159.845 10.4462C86.0443 4.70355 20.4641 73.9856 13.367 165.192C6.26997 256.398 60.3436 334.991 134.144 340.734C207.944 346.477 273.524 277.194 280.621 185.988Z" fill="#FF4A6D"/>
<path d="M151.381 581.888L125.375 581.262C120.017 581.128 115.739 576.669 115.873 571.311L118.428 462.051C118.561 456.694 123.021 452.415 128.379 452.549L154.385 453.175C159.743 453.309 164.021 457.768 163.887 463.126L161.332 572.386C161.198 577.744 156.739 582.022 151.381 581.888Z" fill="#A7A9AC"/>
<path d="M154.923 605.143L116.552 604.246C112.06 604.156 108.481 600.398 108.572 595.865C108.663 591.372 112.42 587.793 116.954 587.884L155.325 588.781C159.817 588.872 163.396 592.629 163.305 597.163C163.173 601.696 159.457 605.234 154.923 605.143Z" fill="#FF4A6D"/>
<path d="M264.782 184.848C271.095 103.718 223.873 33.8761 159.309 28.8522C94.7454 23.8283 37.2883 85.5247 30.9753 166.655C24.6623 247.786 71.8839 317.627 136.448 322.651C201.012 327.675 258.469 265.979 264.782 184.848Z" fill="white"/>
<path d="M30.8929 194.477L263.306 197.758" stroke="#808285" stroke-width="0.7035" stroke-miterlimit="10"/>
<path d="M31.5342 160.477L265.302 166.604" stroke="#808285" stroke-width="0.7035" stroke-miterlimit="10"/>
<path d="M39.1433 124.797L260.917 130.614" stroke="#808285" stroke-width="0.7035" stroke-miterlimit="10"/>
<path d="M54.0859 91.3516L247.675 93.6943" stroke="#808285" stroke-width="0.7035" stroke-miterlimit="10"/>
<path d="M82.219 56.6641L222.351 58.6589" stroke="#808285" stroke-width="0.7035" stroke-miterlimit="10"/>
<path d="M36.641 228.078L254.626 232.404" stroke="#808285" stroke-width="0.7035" stroke-miterlimit="10"/>
<path d="M51.4934 264.125L236.382 268.471" stroke="#808285" stroke-width="0.7035" stroke-miterlimit="10"/>
<path d="M80.1147 298.883L206.728 300.399" stroke="#808285" stroke-width="0.7035" stroke-miterlimit="10"/>
<path d="M64.5839 75.7094L60.864 278.404" stroke="#808285" stroke-width="0.7035" stroke-miterlimit="10"/>
<path d="M102.649 41.9856L97.3209 310.789" stroke="#808285" stroke-width="0.7035" stroke-miterlimit="10"/>
<path d="M139.066 29.4422L131.88 322.147" stroke="#808285" stroke-width="0.7035" stroke-miterlimit="10"/>
<path d="M168.288 29.9531L163.578 320.808" stroke="#808285" stroke-width="0.7035" stroke-miterlimit="10"/>
<path d="M202.885 43.2834L197.071 307.098" stroke="#808285" stroke-width="0.7035" stroke-miterlimit="10"/>
<path d="M240.979 81.9377L236.382 268.474" stroke="#808285" stroke-width="0.7035" stroke-miterlimit="10"/>
<path d="M78.0546 320.353C78.0546 320.353 129.538 384.088 131.469 452.635L150.593 453.083C150.593 453.083 168.577 357.948 219.03 312.211L174.264 336.444C174.264 336.444 142.649 403.279 140.989 409.746C140.989 409.746 125.383 357.661 111.417 332.41C97.4511 307.159 78.0546 320.353 78.0546 320.353Z" fill="#FF4A6D"/>
<defs>
<linearGradient id="paint0_linear" x1="196.612" y1="518.022" x2="290.478" y2="470.258" gradientUnits="userSpaceOnUse">
<stop offset="2.23767e-07" stop-color="#E7E644"/>
<stop offset="1" stop-color="#647734"/>
</linearGradient>
</defs>
</svg>
