<svg width="470" height="373" viewBox="0 0 470 373" fill="none" xmlns="http://www.w3.org/2000/svg">
<path d="M55.0143 278.362L18.2484 287.724L5.16832 310.648L108.809 369.783L121.889 346.858L116.752 316.408L55.0143 278.362Z" fill="#808285"/>
<path d="M121.828 306.277L56.3306 268.906L50.9311 278.37L116.428 315.74L121.828 306.277Z" fill="#808285"/>
<path d="M126.295 349.376L13.8787 285.234L9.9023 292.203L122.319 356.345L126.295 349.376Z" fill="#808285"/>
<path d="M119.473 361.329L7.05652 297.188L0.798995 308.155L113.216 372.296L119.473 361.329Z" fill="#808285"/>
<path d="M65.9915 271.744L111.391 297.648L115.64 290.202L108.915 286.365L150.093 208.195L122.245 192.305L77.3237 265.034L71.3909 262.281L65.9915 271.744Z" fill="#808285"/>
<path d="M165.33 204.349L119.93 178.445L115.661 185.928L161.061 211.832L165.33 204.349Z" fill="#808285"/>
<path d="M173.612 181.363L134.405 158.992L130.429 165.961L169.636 188.332L173.612 181.363Z" fill="#808285"/>
<path d="M88.1514 271.213L133.073 198.485L122.777 192.61L77.8557 265.338L71.9229 262.585L66.5235 272.049L76.8191 277.923L82.2186 268.46L88.1514 271.213Z" fill="#BCBEC0"/>
<path d="M165.762 186.114L135.863 169.055L132.179 175.51L162.079 192.57L165.762 186.114Z" fill="#808285"/>
<path d="M165.932 194.824L126.724 172.453L123.606 177.918L162.813 200.289L165.932 194.824Z" fill="#808285"/>
<path d="M139.573 161.939C139.573 161.939 125.128 126.178 149.468 81.1373C149.468 81.1373 152.279 96.5983 167.514 91.4338C167.514 91.4338 178.569 111.599 197.486 88.0658C197.486 88.0658 192.512 119.554 209.869 114.288C209.869 114.288 211.886 135.908 233.815 128.631C233.815 128.631 203.334 171.286 171.047 179.946L139.552 161.976L139.573 161.939Z" fill="#808285"/>
<path d="M230.307 133.182C232.542 130.324 233.837 128.584 233.837 128.584C231.73 129.277 229.869 129.625 228.13 129.849C228.686 130.992 229.398 132.128 230.307 133.182Z" fill="#BCBEC0"/>
<path d="M139.573 161.933L149.869 167.807L150.288 167.073L155.455 170.021C155.455 170.021 141.761 135.856 163.806 92.2777C151.802 93.986 149.43 81.1094 149.43 81.1094C125.108 126.208 139.573 161.933 139.573 161.933Z" fill="#BCBEC0"/>
<path d="M183.396 99.5162C183.396 99.5162 188.608 109.005 198.004 107.365C195.683 99.4285 197.466 88.096 197.466 88.096C178.549 111.629 167.494 91.464 167.494 91.464C167.001 91.6207 166.589 91.7257 166.118 91.8458C167.7 95.9574 172.183 103.28 183.396 99.5162Z" fill="#BCBEC0"/>
<path d="M25.6293 301.172L26.0479 300.438L13.9286 293.523L11.0824 298.512L27.5707 307.92L29.9984 303.665L25.6293 301.172Z" fill="#BCBEC0"/>
<path d="M67.9498 288.076L66.6581 287.339L67.0976 286.569L51.901 277.898L17.9043 286.555L35.1524 296.396L67.9498 288.076Z" fill="#BCBEC0"/>
<path d="M121.24 304.914L56.009 267.695L50.6096 277.159L51.9013 277.896L54.7294 277.175L67.8893 285.268L72.1168 277.858L120.86 305.67C120.985 305.45 121.132 305.193 121.24 304.914Z" fill="#BCBEC0"/>
<path d="M17.8677 286.532L13.4987 284.039L9.52229 291.008L13.8913 293.501L17.8677 286.532Z" fill="#BCBEC0"/>
<path d="M11.0433 298.493L6.67432 296L0.416777 306.967L4.7858 309.46L11.0433 298.493Z" fill="#BCBEC0"/>
<path d="M101.373 334.177L35.1539 296.394L33.9755 296.695L100.878 334.867C101.004 334.647 101.189 334.412 101.373 334.177Z" fill="#BCBEC0"/>
<path d="M94.5487 346.138L27.5697 307.922L27.1511 308.655L94.2061 346.915C94.3146 346.637 94.4402 346.417 94.5487 346.138Z" fill="#BCBEC0"/>
<path d="M116.861 313.212L116.108 314.532L105.166 308.289L115.974 314.942C116.25 314.37 116.547 313.762 116.861 313.212Z" fill="#BCBEC0"/>
<path d="M70.7398 287.338L99.6182 305.128L105.165 308.293L67.83 285.289L67.0975 286.573L69.149 287.743L70.7398 287.338Z" fill="#BCBEC0"/>
<path d="M115.869 315.124L99.6183 305.123L69.1491 287.738L67.9707 288.038L115.764 315.308C115.785 315.271 115.827 315.198 115.869 315.124Z" fill="#BCBEC0"/>
<path d="M33.9751 296.696L29.6061 294.203L26.0483 300.439L30.4173 302.931L33.9751 296.696Z" fill="#BCBEC0"/>
<path d="M97.0918 340.973L30.4167 302.93L29.9982 303.663L96.7112 341.728C96.7988 341.486 96.9453 341.229 97.0918 340.973Z" fill="#BCBEC0"/>
<path d="M27.1525 308.649L22.7834 306.156L16.5259 317.123L20.895 319.616L27.1525 308.649Z" fill="#BCBEC0"/>
<path d="M218.147 304.758L183.01 338.735V372.658H336.62V338.735L311.394 307.911L218.147 304.758Z" fill="#808285"/>
<path d="M310.661 293.344H213.586V307.37H310.661V293.344Z" fill="#808285"/>
<path d="M343.151 338.734H176.535V349.063H343.151V338.734Z" fill="#808285"/>
<path d="M343.151 356.461H176.535V372.716H343.151V356.461Z" fill="#808285"/>
<path d="M226.199 290.405H293.431V279.315H283.521L279.692 165.641H238.418L234.589 275.618L226.199 276.379V290.405Z" fill="#808285"/>
<path d="M294.22 151.672H226.931V162.762H294.22V151.672Z" fill="#808285"/>
<path d="M237.742 122.86H285.323L312.295 79.6953H211.39L237.742 122.86Z" fill="#808285"/>
<path d="M237.742 122.86H285.323L312.295 79.6953H211.39L237.742 122.86Z" fill="#808285"/>
<path d="M211.39 79.6953L237.742 122.86H253.34L226.931 79.6953H211.39Z" fill="#BCBEC0"/>
<path d="M238.305 14.95H250.918V0H269.838V14.95H283.634V35.4451H271.584V46.4809H277.89L279.016 63.1162H243.486L244.049 47.6225L250.918 48.7098V32.8356H238.305V14.95Z" fill="#808285"/>
<path d="M260.603 0H250.918V14.95H260.603V0Z" fill="#BCBEC0"/>
<path d="M260.603 48.7101V32.8359H250.918V48.7101L244.049 47.6228L243.485 63.1165H253.171L253.734 47.6228L260.603 48.7101Z" fill="#BCBEC0"/>
<path d="M247.99 14.9453H238.305V32.8309H247.99V14.9453Z" fill="#BCBEC0"/>
<path d="M312.294 70.2891H207.955V79.694H312.294V70.2891Z" fill="#808285"/>
<path d="M299.681 63.1172H218.822V68.1186H299.681V63.1172Z" fill="#808285"/>
<path d="M288.87 120.633H230.76V130.962H288.87V120.633Z" fill="#808285"/>
<path d="M250.637 275.618L254.466 165.641H239.206L235.377 275.618L226.931 276.379V290.405H242.247V276.379L250.637 275.618Z" fill="#BCBEC0"/>
<path d="M283.127 130.961H238.812V140.529H283.127V130.961Z" fill="#808285"/>
<path d="M288.87 140.586H230.76V148.686H288.87V140.586Z" fill="#808285"/>
<path d="M199.847 349.071V347.93H181.884V355.323H206.322V349.071H199.847Z" fill="#BCBEC0"/>
<path d="M238.812 307.368H236.898V306.227H214.374L181.884 337.594H207.448L238.812 307.368Z" fill="#BCBEC0"/>
<path d="M309.141 292.258H212.404V306.284H214.318L217.021 303.674L236.898 304.327V293.345H309.198C309.198 292.965 309.141 292.584 309.141 292.258Z" fill="#BCBEC0"/>
<path d="M181.828 337.594H175.353V347.923H181.828V337.594Z" fill="#BCBEC0"/>
<path d="M181.828 355.32H175.353V371.575H181.828V355.32Z" fill="#BCBEC0"/>
<path d="M305.594 337.594H207.505L206.379 338.681H305.538C305.481 338.355 305.538 337.974 305.594 337.594Z" fill="#BCBEC0"/>
<path d="M305.594 355.32H206.322V356.408H305.706C305.65 356.081 305.65 355.701 305.594 355.32Z" fill="#BCBEC0"/>
<path d="M309.535 304.273V306.231H293.319L309.648 306.774C309.592 305.959 309.535 305.143 309.535 304.273Z" fill="#BCBEC0"/>
<path d="M241.459 304.755L285.098 306.223H293.319L236.898 304.32V306.223H239.938L241.459 304.755Z" fill="#BCBEC0"/>
<path d="M309.648 307.105L285.098 306.289H239.995L238.869 307.376H309.705C309.648 307.268 309.648 307.159 309.648 307.105Z" fill="#BCBEC0"/>
<path d="M206.322 338.734H199.847V347.976H206.322V338.734Z" fill="#BCBEC0"/>
<path d="M305.143 347.93H206.322V349.017H305.2C305.143 348.691 305.143 348.31 305.143 347.93Z" fill="#BCBEC0"/>
<path d="M206.322 356.461H199.847V372.716H206.322V356.461Z" fill="#BCBEC0"/>
<path d="M400.734 214.507H431.921C431.921 214.507 473.344 181.399 424.354 128.949L424.398 125.275C424.442 120.925 420.811 117.336 416.306 117.336H415.868C411.626 117.336 408.083 120.503 407.776 124.599L407.427 128.949C407.383 128.949 360.624 179.245 400.734 214.507Z" fill="#808285"/>
<path d="M417.181 128.949L417.53 124.599C417.705 122.192 419.018 120.123 420.942 118.814C419.63 117.885 418.012 117.336 416.262 117.336H415.825C411.582 117.336 408.039 120.503 407.733 124.599L407.383 128.949C407.383 128.949 360.624 179.245 400.69 214.507H410.488C370.422 179.245 417.181 128.949 417.181 128.949Z" fill="#BCBEC0"/>
<path d="M382.975 330.219L358.524 350.869V371.562H465.382V350.869L447.842 332.119L382.975 330.219Z" fill="#808285"/>
<path d="M447.274 323.203H379.782V331.734H447.274V323.203Z" fill="#808285"/>
<path d="M469.888 350.859H354.019V357.152H469.888V350.859Z" fill="#808285"/>
<path d="M469.888 361.672H354.019V371.554H469.888V361.672Z" fill="#808285"/>
<path d="M386.781 320.251H439.051V312.523H431.309L428.378 233.258H396.316L393.342 309.947L386.781 310.496V320.251Z" fill="#808285"/>
<path d="M439.663 222.359H387.393V230.974H439.663V222.359Z" fill="#808285"/>
<path d="M405.808 309.947L408.782 233.258H396.885L393.91 309.947L387.393 310.496V320.251H399.247V310.496L405.808 309.947Z" fill="#BCBEC0"/>
<path d="M435.508 213.789H390.367V220.081H435.508V213.789Z" fill="#808285"/>
<path d="M370.247 357.16V356.484H357.737V361.003H374.752V357.16H370.247Z" fill="#BCBEC0"/>
<path d="M397.322 331.777H396.01V331.102H380.307L357.737 350.189H375.539L397.322 331.777Z" fill="#BCBEC0"/>
<path d="M446.268 322.57H378.995V331.101H380.307L382.188 329.538L396.01 329.961V323.204H446.268C446.268 322.993 446.268 322.781 446.268 322.57Z" fill="#BCBEC0"/>
<path d="M357.737 350.188H353.232V356.48H357.737V350.188Z" fill="#BCBEC0"/>
<path d="M357.737 361H353.232V370.882H357.737V361Z" fill="#BCBEC0"/>
<path d="M443.775 350.188H375.539L374.752 350.863H443.687C443.687 350.652 443.731 350.441 443.775 350.188Z" fill="#BCBEC0"/>
<path d="M443.775 361H374.752V361.676H443.862C443.819 361.465 443.819 361.211 443.775 361Z" fill="#BCBEC0"/>
<path d="M446.486 329.875V331.057H435.201L446.574 331.395C446.574 330.931 446.53 330.424 446.486 329.875Z" fill="#BCBEC0"/>
<path d="M399.203 330.217L429.515 331.104H435.246L396.01 329.922V331.104H398.154L399.203 330.217Z" fill="#BCBEC0"/>
<path d="M446.618 331.608L429.516 331.102H398.154L397.366 331.777H446.618C446.618 331.693 446.618 331.651 446.618 331.608Z" fill="#BCBEC0"/>
<path d="M374.752 350.859H370.247V356.476H374.752V350.859Z" fill="#BCBEC0"/>
<path d="M443.469 356.484H374.752V357.16H443.512C443.469 356.949 443.469 356.738 443.469 356.484Z" fill="#BCBEC0"/>
<path d="M374.752 361.672H370.247V371.554H374.752V361.672Z" fill="#BCBEC0"/>
</svg>
