<svg width="249" height="330" viewBox="0 0 249 330" fill="none" xmlns="http://www.w3.org/2000/svg">
<path d="M127.243 104.098C122.738 103.672 123.184 98.4981 114.256 90.9503C111.742 88.8314 106.208 85.8504 95.1944 79.9056C87.6355 75.8148 84.9484 74.5637 80.0562 71.2881C74.9372 67.851 72.1886 65.9979 69.4783 62.7139C67.218 59.9664 63.8786 54.9247 62.599 46.8598C60.4694 54.1281 60.0297 60.2862 60.0418 64.4644C60.0568 70.2396 60.2056 79.4935 65.6468 89.1066C68.6197 94.3433 72.183 97.9495 74.6883 100.097C70.6061 99.4933 65.4268 98.4627 59.5317 96.6608C50.6414 93.9126 44.4135 90.6891 42.8516 89.874C37.9672 87.276 32.6789 84.4932 27.1311 79.1447C22.6017 74.7828 19.6412 70.4094 17.788 67.2339C16.9026 70.4317 15.5466 77.0771 17.3744 85.156C19.2568 93.5585 23.5748 99.1143 25.7829 101.631C24.8167 101.98 23.0653 102.488 20.913 102.199C17.131 101.718 14.8581 99.2124 14.2461 98.5035C15.2252 101.627 17.0503 105.899 20.5543 110.101C28.873 120.041 40.4442 121.951 43.8636 122.413C41.5319 123.112 38.3176 123.787 34.4287 123.857C30.7535 123.931 27.6211 123.434 25.3324 122.887C29.1086 127.203 35.705 133.64 45.5768 138.499C58.9372 145.1 71.0686 145.278 80.7849 145.424C90.7515 145.554 100.447 145.97 111.799 141.367C117.857 138.922 122.433 135.9 125.512 133.557C128.383 135.816 132.748 138.808 138.51 141.244C146.702 144.669 153.4 145.151 161.872 145.653C172.511 146.296 183.54 146.967 197.142 142.837C207.629 139.658 214.408 135.253 216.033 134.154C221.357 130.594 225.274 126.818 227.949 123.891C226.105 124.402 223.841 124.876 221.265 125.071C216.436 125.406 212.45 124.587 209.719 123.783C213.181 122.999 219.199 121.186 225.268 116.595C227.218 115.135 232.078 111.187 235.959 104.516C236.804 103.055 237.404 101.796 237.836 100.884C236.778 101.635 234.417 103.031 231.154 103.262C228.921 103.439 227.127 102.982 225.976 102.631C228.327 100.863 231.485 97.9609 233.929 93.5817C239.943 82.7431 236.709 71.5331 235.921 68.9901C234.087 71.7754 231.375 75.4277 227.655 79.2632C225.908 81.062 218.291 88.7095 205.681 94.616C194.144 100.022 183.562 101.606 176.469 102.017C179.489 100.269 184.379 96.8223 188.074 90.8611C192.179 84.2581 192.662 77.9597 193.054 71.7564C193.417 66.2503 193.29 57.1258 189.562 46.2254C189.204 49.7072 188.208 55.1735 184.904 60.7628C180.328 68.6032 173.734 72.6037 167.797 76.1606C157.897 82.0361 156.872 79.6662 149.521 84.2336C135.514 92.9051 134.046 104.735 127.243 104.098Z" fill="black"/>
<path d="M114.372 117.384C114.19 112.356 100.379 109.239 98.3147 108.762C91.423 107.208 79.2247 105.843 63.0448 111.579C63.8392 114.001 66.0899 119.692 71.7703 124.406C73.4584 125.812 78.6132 129.935 86.3083 130.568C92.7189 131.085 97.3247 128.871 103.05 126.109C108.867 123.344 114.49 120.612 114.372 117.384Z" fill="#FED9D4"/>
<path d="M187.327 111.78C186.207 108.214 178.294 107.791 171.562 107.421C165.946 107.117 159.188 106.831 150.876 109.724C144.516 111.954 139.832 115.127 136.856 117.532C138.379 119.379 140.736 121.91 144.101 124.259C151.096 129.19 157.807 130.229 159.252 130.424C163.165 130.976 167.871 131.647 172.919 129.292C176.71 127.535 178.781 124.976 182.403 120.558C186.096 116.008 187.952 113.751 187.327 111.78Z" fill="#FCD8C3"/>
<path d="M64.772 139.898L74.869 140.02L72.5852 329.839L62.4882 329.717L64.772 139.898Z" fill="black"/>
</svg>
